<svg width="1545" height="831" viewBox="0 0 1545 831" fill="none" xmlns="http://www.w3.org/2000/svg">
<path d="M876.034 223.652H668.861L772.448 334.39L876.034 223.652Z" fill="#FBE901"/>
<path d="M976.545 332.202H769.053L872.809 445.112L976.545 332.202Z" fill="#861C99"/>
<path d="M872.81 445.418L1080.28 444.222L975.697 331.901L872.81 445.418Z" fill="#BE2E99"/>
<path d="M975.697 331.906L876.033 223.652L769.053 332.201L975.697 331.906Z" fill="#FE9102"/>
<path d="M769.052 331.906L669.41 223.652L562.43 332.201L769.052 331.906Z" fill="#FE9102"/>
<path d="M769.498 332.202H562.006L665.742 445.112L769.498 332.202Z" fill="#E3191F"/>
<path d="M665.742 445.222L562.176 332.202L450.996 445.535L665.742 445.222Z" fill="#D01518"/>
<path d="M669.56 223.651L876.733 223.375L772.956 112.784L669.56 223.651Z" fill="#13AA38"/>
<path d="M568.857 115.231L776.328 114.955L672.38 2.17334L568.857 115.231Z" fill="#C02E99"/>
<path d="M672.38 1.87891L464.909 3.35098L569.705 115.525L672.38 1.87891Z" fill="#851B97"/>
<path d="M569.705 115.521L669.559 223.647L776.328 114.951L569.705 115.521Z" fill="#7DCF08"/>
<path d="M776.328 115.246L876.182 223.372L982.95 114.676L776.328 115.246Z" fill="#7DD205"/>
<path d="M775.904 114.956L983.396 114.68L879.448 1.89893L775.904 114.956Z" fill="#15369D"/>
<path d="M879.449 1.80063L983.227 114.674L1094.19 1.19336L879.449 1.80063Z" fill="#3B4BAB"/>
<path d="M192.602 213.383L417.04 443.472H203.906L39.5756 257.213L8.56738 226.153L192.602 213.383Z" fill="#CACACA"/>
<path d="M1346.95 213.383L1126.26 443.472H1335.62L1463.96 305.505L1362.03 213.383H1346.95Z" fill="#CACACA"/>
<path d="M205.327 1.87891H412.797L104.412 330.558L0 216.678L205.327 1.87891Z" fill="white"/>
<path d="M1126.26 0H1335.62L1545 224.201L1431.07 341.091L1126.26 0Z" fill="white"/>
<path d="M200.105 743.137L149.492 681.166V743.137H121.595V604.051H149.492V666.421L200.105 604.051H233.781L176.393 672.996L235.375 743.137H200.105ZM350.567 645.896C347.378 640.051 342.995 635.601 337.415 632.546C331.836 629.49 325.327 627.963 317.887 627.963C309.651 627.963 302.345 629.823 295.968 633.542C289.592 637.262 284.61 642.575 281.024 649.483C277.437 656.391 275.643 664.362 275.643 673.395C275.643 682.694 277.437 690.797 281.024 697.705C284.743 704.613 289.858 709.927 296.367 713.646C302.876 717.366 310.448 719.226 319.083 719.226C329.71 719.226 338.412 716.436 345.186 710.856C351.961 705.144 356.412 697.24 358.537 687.144H310.714V665.823H386.036V690.133C384.176 699.831 380.191 708.797 374.08 717.034C367.969 725.27 360.065 731.912 350.367 736.96C340.803 741.875 330.042 744.333 318.087 744.333C304.67 744.333 292.514 741.344 281.621 735.366C270.861 729.255 262.359 720.82 256.116 710.059C250.005 699.299 246.949 687.078 246.949 673.395C246.949 659.712 250.005 647.491 256.116 636.73C262.359 625.837 270.861 617.402 281.621 611.424C292.514 605.313 304.603 602.258 317.887 602.258C333.563 602.258 347.179 606.11 358.736 613.815C370.294 621.387 378.264 632.081 382.648 645.896H350.567ZM489.967 743.137L459.878 696.31L432.579 743.137H401.096L444.934 672.996L400.498 604.051H432.579L462.668 650.679L489.768 604.051H521.252L477.613 673.993L522.049 743.137H489.967ZM571.177 648.686C574.763 643.638 579.678 639.454 585.922 636.133C592.298 632.679 599.538 630.952 607.642 630.952C617.074 630.952 625.576 633.276 633.148 637.926C640.852 642.575 646.897 649.218 651.281 657.852C655.797 666.354 658.056 676.251 658.056 687.543C658.056 698.834 655.797 708.864 651.281 717.631C646.897 726.266 640.852 732.975 633.148 737.757C625.576 742.539 617.074 744.931 607.642 744.931C599.538 744.931 592.365 743.27 586.121 739.949C580.011 736.628 575.029 732.443 571.177 727.395V795.743H543.28V632.745H571.177V648.686ZM629.561 687.543C629.561 680.9 628.166 675.188 625.376 670.406C622.719 665.491 619.133 661.771 614.616 659.247C610.232 656.723 605.45 655.461 600.269 655.461C595.221 655.461 590.439 656.79 585.922 659.446C581.538 661.97 577.951 665.69 575.162 670.605C572.505 675.52 571.177 681.299 571.177 687.941C571.177 694.583 572.505 700.362 575.162 705.277C577.951 710.192 581.538 713.978 585.922 716.635C590.439 719.159 595.221 720.421 600.269 720.421C605.45 720.421 610.232 719.093 614.616 716.436C619.133 713.779 622.719 709.993 625.376 705.078C628.166 700.163 629.561 694.318 629.561 687.543ZM780.948 685.55C780.948 689.535 780.683 693.122 780.151 696.31H699.45C700.114 704.281 702.903 710.524 707.819 715.041C712.734 719.558 718.778 721.816 725.952 721.816C736.313 721.816 743.686 717.366 748.07 708.465H778.159C774.971 719.093 768.86 727.86 759.826 734.768C750.793 741.543 739.701 744.931 726.549 744.931C715.922 744.931 706.357 742.606 697.855 737.956C689.486 733.174 682.911 726.465 678.128 717.831C673.479 709.196 671.154 699.233 671.154 687.941C671.154 676.517 673.479 666.487 678.128 657.852C682.778 649.218 689.287 642.575 697.656 637.926C706.025 633.276 715.656 630.952 726.549 630.952C737.044 630.952 746.409 633.21 754.646 637.727C763.015 642.243 769.458 648.686 773.974 657.055C778.624 665.291 780.948 674.79 780.948 685.55ZM752.055 677.579C751.922 670.406 749.332 664.694 744.284 660.443C739.236 656.059 733.059 653.867 725.752 653.867C718.845 653.867 712.999 655.993 708.217 660.243C703.568 664.362 700.712 670.14 699.649 677.579H752.055ZM829.208 649.882C832.794 644.037 837.444 639.454 843.156 636.133C849.001 632.811 855.643 631.151 863.082 631.151V660.443H855.71C846.942 660.443 840.3 662.502 835.783 666.62C831.399 670.738 829.208 677.912 829.208 688.14V743.137H801.311V632.745H829.208V649.882ZM896.02 619.594C891.105 619.594 886.987 618.066 883.666 615.011C880.478 611.822 878.883 607.904 878.883 603.254C878.883 598.605 880.478 594.752 883.666 591.697C886.987 588.508 891.105 586.914 896.02 586.914C900.935 586.914 904.987 588.508 908.175 591.697C911.496 594.752 913.157 598.605 913.157 603.254C913.157 607.904 911.496 611.822 908.175 615.011C904.987 618.066 900.935 619.594 896.02 619.594ZM909.769 632.745V743.137H881.872V632.745H909.769ZM1039.95 685.55C1039.95 689.535 1039.69 693.122 1039.16 696.31H958.454C959.118 704.281 961.907 710.524 966.823 715.041C971.738 719.558 977.782 721.816 984.956 721.816C995.317 721.816 1002.69 717.366 1007.07 708.465H1037.16C1033.97 719.093 1027.86 727.86 1018.83 734.768C1009.8 741.543 998.705 744.931 985.553 744.931C974.926 744.931 965.361 742.606 956.859 737.956C948.49 733.174 941.915 726.465 937.132 717.831C932.483 709.196 930.158 699.233 930.158 687.941C930.158 676.517 932.483 666.487 937.132 657.852C941.782 649.218 948.291 642.575 956.66 637.926C965.029 633.276 974.66 630.952 985.553 630.952C996.048 630.952 1005.41 633.21 1013.65 637.727C1022.02 642.243 1028.46 648.686 1032.98 657.055C1037.63 665.291 1039.95 674.79 1039.95 685.55ZM1011.06 677.579C1010.93 670.406 1008.34 664.694 1003.29 660.443C998.24 656.059 992.063 653.867 984.756 653.867C977.849 653.867 972.003 655.993 967.221 660.243C962.572 664.362 959.716 670.14 958.653 677.579H1011.06ZM1121.49 631.151C1134.64 631.151 1145.27 635.335 1153.37 643.705C1161.47 651.941 1165.53 663.498 1165.53 678.376V743.137H1137.63V682.162C1137.63 673.395 1135.44 666.686 1131.05 662.037C1126.67 657.255 1120.69 654.863 1113.12 654.863C1105.41 654.863 1099.3 657.255 1094.79 662.037C1090.4 666.686 1088.21 673.395 1088.21 682.162V743.137H1060.31V632.745H1088.21V646.494C1091.93 641.712 1096.65 637.992 1102.36 635.335C1108.2 632.546 1114.58 631.151 1121.49 631.151ZM1184.88 687.941C1184.88 676.517 1187.21 666.553 1191.86 658.052C1196.5 649.417 1202.95 642.775 1211.18 638.125C1219.42 633.343 1228.85 630.952 1239.48 630.952C1253.16 630.952 1264.45 634.406 1273.35 641.313C1282.39 648.088 1288.43 657.653 1291.49 670.007H1261.4C1259.8 665.225 1257.08 661.505 1253.23 658.849C1249.51 656.059 1244.86 654.664 1239.28 654.664C1231.31 654.664 1225 657.587 1220.35 663.432C1215.7 669.144 1213.38 677.314 1213.38 687.941C1213.38 698.436 1215.7 706.606 1220.35 712.451C1225 718.163 1231.31 721.019 1239.28 721.019C1250.57 721.019 1257.94 715.971 1261.4 705.875H1291.49C1288.43 717.831 1282.39 727.329 1273.35 734.37C1264.32 741.41 1253.03 744.931 1239.48 744.931C1228.85 744.931 1219.42 742.606 1211.18 737.956C1202.95 733.174 1196.5 726.532 1191.86 718.03C1187.21 709.395 1184.88 699.366 1184.88 687.941ZM1414.54 685.55C1414.54 689.535 1414.28 693.122 1413.75 696.31H1333.05C1333.71 704.281 1336.5 710.524 1341.42 715.041C1346.33 719.558 1352.37 721.816 1359.55 721.816C1369.91 721.816 1377.28 717.366 1381.67 708.465H1411.76C1408.57 719.093 1402.46 727.86 1393.42 734.768C1384.39 741.543 1373.3 744.931 1360.15 744.931C1349.52 744.931 1339.95 742.606 1331.45 737.956C1323.08 733.174 1316.51 726.465 1311.72 717.831C1307.08 709.196 1304.75 699.233 1304.75 687.941C1304.75 676.517 1307.08 666.487 1311.72 657.852C1316.37 649.218 1322.88 642.575 1331.25 637.926C1339.62 633.276 1349.25 630.952 1360.15 630.952C1370.64 630.952 1380.01 633.21 1388.24 637.727C1396.61 642.243 1403.05 648.686 1407.57 657.055C1412.22 665.291 1414.54 674.79 1414.54 685.55ZM1385.65 677.579C1385.52 670.406 1382.93 664.694 1377.88 660.443C1372.83 656.059 1366.66 653.867 1359.35 653.867C1352.44 653.867 1346.6 655.993 1341.81 660.243C1337.16 664.362 1334.31 670.14 1333.25 677.579H1385.65Z" fill="white"/>
</svg>
