<svg xmlns="http://www.w3.org/2000/svg" width="728.453" height="242.12" viewBox="0 0 728.453 242.12">
    <g id="KGX_ILLUSTRATION_BY_AKASTHI_Recovered_-01_1_" data-name="KGX ILLUSTRATION BY AKASTHI [Recovered]-01 (1)" transform="translate(-169.057 -412.9)">
      <path id="Path_7" data-name="Path 7" d="M582.1,534.44H484.42l48.84,60.18Z" fill="#fbe901"/>
      <path id="Path_8" data-name="Path 8" d="M629.49,593.43H531.66l48.92,61.36Z" fill="#861c99"/>
      <path id="Path_9" data-name="Path 9" d="M580.58,654.96l97.82-.65-49.31-61.04Z" fill="#be2e99"/>
      <path id="Path_10" data-name="Path 10" d="M629.09,593.27,582.1,534.44l-50.44,58.99Z" fill="#fe9102"/>
      <path id="Path_11" data-name="Path 11" d="M531.66,593.27l-46.98-58.83-50.44,58.99Z" fill="#fe9102"/>
      <path id="Path_12" data-name="Path 12" d="M531.87,593.43H434.04l48.91,61.36Z" fill="#e3191f"/>
      <path id="Path_13" data-name="Path 13" d="M482.95,654.85l-48.83-61.42L381.7,655.02Z" fill="#d01518"/>
      <path id="Path_14" data-name="Path 14" d="M484.75,534.44l97.68-.15-48.93-60.1Z" fill="#13aa38"/>
      <path id="Path_15" data-name="Path 15" d="M437.27,475.52l97.82-.15-49.01-61.29Z" fill="#c02e99"/>
      <path id="Path_16" data-name="Path 16" d="M486.08,413.92l-97.82.8,49.41,60.96Z" fill="#851b97"/>
      <path id="Path_17" data-name="Path 17" d="M437.67,475.68l47.08,58.76,50.34-59.07Z" fill="#7dcf08"/>
      <path id="Path_18" data-name="Path 18" d="M535.09,475.53l47.08,58.76,50.34-59.07Z" fill="#7dd205"/>
      <path id="Path_19" data-name="Path 19" d="M534.89,475.37l97.83-.15-49.01-61.29Z" fill="#15369d"/>
      <path id="Path_20" data-name="Path 20" d="M583.71,413.88l48.93,61.34,52.32-61.67Z" fill="#3b4bab"/>
      <path id="Path_21" data-name="Path 21" d="M259.87,528.86,365.69,653.9H265.2L187.72,552.679,173.1,535.8Z" fill="#cacaca"/>
      <path id="Path_22" data-name="Path 22" d="M804.13,528.86,700.08,653.9h98.71L859.3,578.923,811.24,528.86Z" fill="#cacaca"/>
      <path id="Path_23" data-name="Path 23" d="M267.87,412.9h97.82l-145.4,178.618-49.229-61.887Z" transform="translate(-2 1.02)" fill="#fff"/>
      <path id="Path_24" data-name="Path 24" d="M700.08,412.9h98.71l98.72,121.84-53.716,63.523Z" fill="#fff"/>
    </g>
  </svg>