<svg width="47  " height="94" viewBox="0 0 167 169" fill="none" xmlns="http://www.w3.org/2000/svg">
<mask id="mask0_5_45" style="mask-type:luminance" maskUnits="userSpaceOnUse" x="0" y="0" width="167" height="169">
<path d="M166.4 0H0.757812V168.218H166.4V0Z" fill="white"/>
</mask>
<g mask="url(#mask0_5_45)">
<path d="M83.7551 99.0437C94.4621 99.0437 103.143 90.2287 103.143 79.3547C103.143 68.4807 94.4621 59.665 83.7551 59.665C73.0471 59.665 64.3672 68.4807 64.3672 79.3547C64.3672 90.2287 73.0471 99.0437 83.7551 99.0437Z" stroke="white" stroke-width="8.29182"/>
<path d="M83.2821 116.732C103.609 116.732 120.087 99.9977 120.087 79.3547C120.087 58.7119 103.609 41.9775 83.2821 41.9775C62.9556 41.9775 46.4775 58.7119 46.4775 79.3547C46.4775 99.9977 62.9556 116.732 83.2821 116.732Z" stroke="white" stroke-width="8.29182"/>
<path d="M83.3431 133.618C112.852 133.618 136.774 109.325 136.774 79.3567C136.774 49.3892 112.852 25.0957 83.3431 25.0957C53.8346 25.0957 29.9131 49.3892 29.9131 79.3567C29.9131 109.325 53.8346 133.618 83.3431 133.618Z" stroke="white" stroke-width="8.29182"/>
<path d="M83.5431 151.298C122.671 151.298 154.391 119.085 154.391 79.3487C154.391 39.612 122.671 7.39941 83.5431 7.39941C44.4156 7.39941 12.6963 39.612 12.6963 79.3487C12.6963 119.085 44.4156 151.298 83.5431 151.298Z" stroke="white" stroke-width="8.29182"/>
<path d="M83.8061 49.0629C87.2281 49.0629 90.0021 46.2458 90.0021 42.7707C90.0021 39.2956 87.2281 36.4785 83.8061 36.4785C80.3841 36.4785 77.6101 39.2956 77.6101 42.7707C77.6101 46.2458 80.3841 49.0629 83.8061 49.0629Z" fill="black" stroke="white" stroke-width="5.52788"/>
<path d="M47.568 89.9657C50.9898 89.9657 53.7639 87.1477 53.7639 83.6727C53.7639 80.1977 50.9898 77.3807 47.568 77.3807C44.1462 77.3807 41.3721 80.1977 41.3721 83.6727C41.3721 87.1477 44.1462 89.9657 47.568 89.9657Z" fill="black" stroke="white" stroke-width="5.52788"/>
<path d="M54.6941 131.53C58.8075 131.53 62.142 128.144 62.142 123.966C62.142 119.789 58.8075 116.403 54.6941 116.403C50.5806 116.403 47.2461 119.789 47.2461 123.966C47.2461 128.144 50.5806 131.53 54.6941 131.53Z" fill="black" stroke="white" stroke-width="6.90985"/>
<path d="M83.5421 160.057C87.9101 160.057 91.4501 156.46 91.4501 152.024C91.4501 147.589 87.9101 143.993 83.5421 143.993C79.1741 143.993 75.6341 147.589 75.6341 152.024C75.6341 156.46 79.1741 160.057 83.5421 160.057Z" fill="black" stroke="white" stroke-width="8.29182"/>
<path d="M28.5509 43.5578C32.9186 43.5578 36.4592 39.962 36.4592 35.5264C36.4592 31.0909 32.9186 27.4951 28.5509 27.4951C24.1832 27.4951 20.6426 31.0909 20.6426 35.5264C20.6426 39.962 24.1832 43.5578 28.5509 43.5578Z" fill="black" stroke="white" stroke-width="8.29182"/>
<path d="M137.012 39.4078C140.434 39.4078 143.208 36.5905 143.208 33.1154C143.208 29.6403 140.434 26.8232 137.012 26.8232C133.59 26.8232 130.816 29.6403 130.816 33.1154C130.816 36.5905 133.59 39.4078 137.012 39.4078Z" fill="black" stroke="white" stroke-width="5.52788"/>
<path d="M133.85 72.0377C137.964 72.0377 141.298 68.6517 141.298 64.4738C141.298 60.2965 137.964 56.9102 133.85 56.9102C129.737 56.9102 126.402 60.2965 126.402 64.4738C126.402 68.6517 129.737 72.0377 133.85 72.0377Z" fill="black" stroke="white" stroke-width="6.90985"/>
<path d="M160.427 0H154.464V6.0559H160.427V0Z" fill="white"/>
<path d="M166.396 6.05569H160.433V12.1115H166.396V6.05569Z" fill="white"/>
<path d="M160.427 12.1113H154.464V18.1672H160.427V12.1113Z" fill="white"/>
<path d="M154.477 6.05569H148.514V12.1115H154.477V6.05569Z" fill="white"/>
<path d="M160.427 150.049H154.464V156.105H160.427V150.049Z" fill="white"/>
<path d="M166.396 156.105H160.433V162.161H166.396V156.105Z" fill="white"/>
<path d="M160.427 162.161H154.464V168.217H160.427V162.161Z" fill="white"/>
<path d="M154.477 156.105H148.514V162.161H154.477V156.105Z" fill="white"/>
<path d="M14.6673 145.347H8.70411V151.403H14.6673V145.347Z" fill="white"/>
<path d="M22.6135 153.409H16.6504V159.464H22.6135V153.409Z" fill="white"/>
<path d="M14.6673 162.161H8.70411V168.217H14.6673V162.161Z" fill="white"/>
<path d="M6.72091 153.409H0.757812V159.464H6.72091V153.409Z" fill="white"/>
<path d="M16.6633 6.05569H10.7002V12.1115H16.6633V6.05569Z" fill="white"/>
<path d="M8.81271 13.8867H2.84961V19.9426H8.81271V13.8867Z" fill="white"/>
</g>
</svg>
