<svg width="201" height="94" viewBox="0 0 1493 227" fill="none" xmlns="http://www.w3.org/2000/svg">
    <path d="M111.239 133.066C125.589 133.066 137.224 121.223 137.224 106.614C137.224 92.0043 125.589 80.1604 111.239 80.1604C96.8873 80.1604 85.2539 92.0043 85.2539 106.614C85.2539 121.223 96.8873 133.066 111.239 133.066Z" stroke="white" stroke-width="8.29182"/>
    <path d="M110.605 156.83C137.849 156.83 159.934 134.348 159.934 106.614C159.934 78.88 137.849 56.3972 110.605 56.3972C83.362 56.3972 61.2769 78.88 61.2769 106.614C61.2769 134.348 83.362 156.83 110.605 156.83Z" stroke="white" stroke-width="8.29182"/>
    <path d="M110.687 179.516C150.237 179.516 182.299 146.878 182.299 106.616C182.299 66.3545 150.237 33.7161 110.687 33.7161C71.1375 33.7161 39.0762 66.3545 39.0762 106.616C39.0762 146.878 71.1375 179.516 110.687 179.516Z" stroke="white" stroke-width="8.29182"/>
    <path d="M110.955 203.269C163.397 203.269 205.91 159.991 205.91 106.605C205.91 53.2187 163.397 9.94092 110.955 9.94092C58.5134 9.94092 16.001 53.2187 16.001 106.605C16.001 159.991 58.5134 203.269 110.955 203.269Z" stroke="white" stroke-width="8.29182"/>
    <path d="M111.307 65.9162C115.894 65.9162 119.612 62.1315 119.612 57.4626C119.612 52.7938 115.894 49.009 111.307 49.009C106.721 49.009 103.003 52.7938 103.003 57.4626C103.003 62.1315 106.721 65.9162 111.307 65.9162Z" fill="black" stroke="white" stroke-width="5.52788"/>
    <path d="M62.7383 120.869C67.3244 120.869 71.0425 117.083 71.0425 112.415C71.0425 107.746 67.3244 103.961 62.7383 103.961C58.1521 103.961 54.4341 107.746 54.4341 112.415C54.4341 117.083 58.1521 120.869 62.7383 120.869Z" fill="black" stroke="white" stroke-width="5.52788"/>
    <path d="M72.289 176.711C77.802 176.711 82.2712 172.162 82.2712 166.549C82.2712 160.937 77.802 156.388 72.289 156.388C66.7758 156.388 62.3066 160.937 62.3066 166.549C62.3066 172.162 66.7758 176.711 72.289 176.711Z" fill="black" stroke="white" stroke-width="6.90985"/>
    <path d="M110.953 215.037C116.807 215.037 121.552 210.205 121.552 204.245C121.552 198.286 116.807 193.455 110.953 193.455C105.099 193.455 100.354 198.286 100.354 204.245C100.354 210.205 105.099 215.037 110.953 215.037Z" fill="black" stroke="white" stroke-width="8.29182"/>
    <path d="M37.2506 58.5203C43.1045 58.5203 47.8499 53.6893 47.8499 47.73C47.8499 41.7709 43.1045 36.9399 37.2506 36.9399C31.3967 36.9399 26.6514 41.7709 26.6514 47.73C26.6514 53.6893 31.3967 58.5203 37.2506 58.5203Z" fill="black" stroke="white" stroke-width="8.29182"/>
    <path d="M182.618 52.9446C187.204 52.9446 190.922 49.1595 190.922 44.4907C190.922 39.8219 187.204 36.0371 182.618 36.0371C178.031 36.0371 174.313 39.8219 174.313 44.4907C174.313 49.1595 178.031 52.9446 182.618 52.9446Z" fill="black" stroke="white" stroke-width="5.52788"/>
    <path d="M178.379 96.7829C183.893 96.7829 188.362 92.2337 188.362 86.6207C188.362 81.0085 183.893 76.459 178.379 76.459C172.867 76.459 168.397 81.0085 168.397 86.6207C168.397 92.2337 172.867 96.7829 178.379 96.7829Z" fill="black" stroke="white" stroke-width="6.90985"/>
    <path d="M214 0H206.008V8.13614H214V0Z" fill="white"/>
    <path d="M222 8.13599H214.008V16.272H222V8.13599Z" fill="white"/>
    <path d="M214 16.2715H206.008V24.4076H214V16.2715Z" fill="white"/>
    <path d="M206.026 8.13599H198.034V16.272H206.026V8.13599Z" fill="white"/>
    <path d="M214 201.591H206.008V209.727H214V201.591Z" fill="white"/>
    <path d="M222 209.728H214.008V217.864H222V209.728Z" fill="white"/>
    <path d="M214 217.864H206.008V226H214V217.864Z" fill="white"/>
    <path d="M206.026 209.728H198.034V217.864H206.026V209.728Z" fill="white"/>
    <path d="M18.6422 195.274H10.6499V203.41H18.6422V195.274Z" fill="white"/>
    <path d="M29.2925 206.105H21.3003V214.24H29.2925V206.105Z" fill="white"/>
    <path d="M18.6422 217.864H10.6499V226H18.6422V217.864Z" fill="white"/>
    <path d="M7.99217 206.105H0V214.24H7.99217V206.105Z" fill="white"/>
    <path d="M21.3179 8.13599H13.3257V16.272H21.3179V8.13599Z" fill="white"/>
    <path d="M10.7959 18.657H2.80371V26.7931H10.7959V18.657Z" fill="white"/>
    <path d="M349.72 183L334.778 144.484H286.136L271.277 183H257L304.48 61.1445H317.181L364.329 183H349.72ZM330.545 131.95L316.351 93.6836C316.019 92.6875 315.465 91.055 314.69 88.7861C313.971 86.5173 313.224 84.1654 312.449 81.7305C311.674 79.2956 311.038 77.3311 310.54 75.8369C309.987 78.1058 309.378 80.3747 308.714 82.6436C308.105 84.8571 307.496 86.9323 306.888 88.8691C306.279 90.7507 305.753 92.3555 305.311 93.6836L290.867 131.95H330.545ZM381.18 183V61.6426H395.291V183H381.18ZM524.7 72.3506C518.004 72.3506 511.972 73.5127 506.604 75.8369C501.292 78.1058 496.754 81.4261 492.991 85.7979C489.284 90.1143 486.434 95.3438 484.441 101.486C482.449 107.629 481.453 114.546 481.453 122.238C481.453 132.421 483.03 141.275 486.185 148.801C489.394 156.271 494.153 162.054 500.462 166.149C506.826 170.244 514.767 172.292 524.285 172.292C529.708 172.292 534.799 171.849 539.559 170.964C544.373 170.023 549.049 168.861 553.587 167.478V179.763C549.16 181.423 544.511 182.64 539.642 183.415C534.772 184.245 528.989 184.66 522.293 184.66C509.952 184.66 499.632 182.115 491.331 177.023C483.086 171.877 476.888 164.628 472.737 155.275C468.642 145.923 466.595 134.883 466.595 122.155C466.595 112.969 467.868 104.585 470.413 97.0039C473.014 89.3672 476.777 82.7819 481.702 77.248C486.683 71.7142 492.77 67.4531 499.964 64.4648C507.213 61.4212 515.514 59.8994 524.866 59.8994C531.009 59.8994 536.93 60.5081 542.63 61.7256C548.33 62.943 553.476 64.6862 558.069 66.9551L552.425 78.9082C548.551 77.1374 544.29 75.6156 539.642 74.3428C535.049 73.0146 530.068 72.3506 524.7 72.3506ZM656.268 137.346C656.268 144.816 655.299 151.485 653.362 157.351C651.425 163.216 648.631 168.169 644.979 172.209C641.326 176.249 636.899 179.348 631.697 181.506C626.551 183.609 620.713 184.66 614.183 184.66C608.095 184.66 602.506 183.609 597.415 181.506C592.379 179.348 588.007 176.249 584.3 172.209C580.647 168.169 577.798 163.216 575.75 157.351C573.758 151.485 572.762 144.816 572.762 137.346C572.762 127.385 574.45 118.918 577.825 111.945C581.201 104.917 586.015 99.5771 592.269 95.9248C598.577 92.2171 606.076 90.3633 614.764 90.3633C623.064 90.3633 630.314 92.2171 636.512 95.9248C642.765 99.6325 647.607 105 651.038 112.028C654.524 119.001 656.268 127.44 656.268 137.346ZM587.039 137.346C587.039 144.65 588.007 150.987 589.944 156.354C591.881 161.722 594.869 165.873 598.909 168.806C602.949 171.739 608.151 173.205 614.515 173.205C620.823 173.205 625.997 171.739 630.037 168.806C634.132 165.873 637.148 161.722 639.085 156.354C641.022 150.987 641.99 144.65 641.99 137.346C641.99 130.096 641.022 123.843 639.085 118.586C637.148 113.273 634.16 109.178 630.12 106.301C626.08 103.423 620.851 101.984 614.432 101.984C604.969 101.984 598.024 105.111 593.597 111.364C589.225 117.618 587.039 126.278 587.039 137.346ZM693.87 92.0234V183H680.091V92.0234H693.87ZM687.146 57.9902C689.415 57.9902 691.352 58.7373 692.957 60.2314C694.617 61.6702 695.447 63.9391 695.447 67.0381C695.447 70.0817 694.617 72.3506 692.957 73.8447C691.352 75.3389 689.415 76.0859 687.146 76.0859C684.767 76.0859 682.775 75.3389 681.17 73.8447C679.62 72.3506 678.846 70.0817 678.846 67.0381C678.846 63.9391 679.62 61.6702 681.17 60.2314C682.775 58.7373 684.767 57.9902 687.146 57.9902ZM821.868 90.3633C831.884 90.3633 839.438 92.9919 844.529 98.249C849.62 103.451 852.166 111.835 852.166 123.4V183H838.553V124.064C838.553 116.704 836.948 111.198 833.738 107.546C830.584 103.838 825.88 101.984 819.627 101.984C810.828 101.984 804.437 104.53 800.452 109.621C796.468 114.712 794.476 122.211 794.476 132.116V183H780.779V124.064C780.779 119.139 780.06 115.044 778.621 111.779C777.238 108.514 775.135 106.079 772.312 104.475C769.546 102.814 766.032 101.984 761.771 101.984C755.739 101.984 750.896 103.229 747.244 105.72C743.592 108.21 740.936 111.918 739.275 116.843C737.671 121.713 736.868 127.717 736.868 134.855V183H723.089V92.0234H734.212L736.287 104.89H737.034C738.86 101.735 741.157 99.0791 743.924 96.9209C746.691 94.7627 749.79 93.1302 753.221 92.0234C756.652 90.9167 760.304 90.3633 764.178 90.3633C771.095 90.3633 776.878 91.6637 781.526 94.2646C786.23 96.8102 789.633 100.712 791.736 105.969H792.483C795.472 100.712 799.567 96.8102 804.769 94.2646C809.97 91.6637 815.67 90.3633 821.868 90.3633ZM894.251 53.8398V86.1299C894.251 89.8376 894.14 93.4346 893.919 96.9209C893.753 100.407 893.615 103.119 893.504 105.056H894.251C896.741 100.961 900.338 97.502 905.042 94.6797C909.746 91.8574 915.75 90.4463 923.055 90.4463C934.454 90.4463 943.53 94.403 950.281 102.316C957.088 110.174 960.491 121.879 960.491 137.429C960.491 147.666 958.942 156.299 955.843 163.327C952.744 170.355 948.372 175.668 942.728 179.265C937.083 182.862 930.415 184.66 922.723 184.66C915.529 184.66 909.607 183.332 904.959 180.676C900.366 177.964 896.824 174.672 894.334 170.798H893.255L890.433 183H880.472V53.8398H894.251ZM920.813 101.984C914.228 101.984 908.999 103.285 905.125 105.886C901.251 108.431 898.457 112.305 896.741 117.507C895.081 122.653 894.251 129.183 894.251 137.097V137.844C894.251 149.299 896.16 158.07 899.979 164.157C903.797 170.189 910.742 173.205 920.813 173.205C929.28 173.205 935.617 170.106 939.822 163.908C944.083 157.71 946.214 148.856 946.214 137.346C946.214 125.614 944.111 116.787 939.905 110.866C935.755 104.945 929.391 101.984 920.813 101.984ZM1018.6 90.5293C1029.44 90.5293 1037.49 92.9642 1042.75 97.834C1048.01 102.704 1050.64 110.479 1050.64 121.159V183H1040.59L1037.94 169.553H1037.27C1034.73 172.873 1032.07 175.668 1029.3 177.937C1026.54 180.15 1023.33 181.838 1019.68 183C1016.08 184.107 1011.65 184.66 1006.39 184.66C1000.86 184.66 995.936 183.692 991.619 181.755C987.358 179.818 983.982 176.885 981.492 172.956C979.057 169.027 977.84 164.047 977.84 158.015C977.84 148.939 981.437 141.966 988.631 137.097C995.825 132.227 1006.78 129.571 1021.5 129.128L1037.19 128.464V122.902C1037.19 115.044 1035.5 109.538 1032.13 106.384C1028.75 103.229 1023.99 101.652 1017.85 101.652C1013.09 101.652 1008.55 102.344 1004.24 103.728C999.92 105.111 995.825 106.743 991.951 108.625L987.718 98.166C991.813 96.0632 996.517 94.2646 1001.83 92.7705C1007.14 91.2764 1012.73 90.5293 1018.6 90.5293ZM1037.02 138.176L1023.16 138.757C1011.82 139.2 1003.82 141.053 999.173 144.318C994.524 147.583 992.2 152.204 992.2 158.181C992.2 163.382 993.777 167.229 996.932 169.719C1000.09 172.209 1004.26 173.454 1009.47 173.454C1017.55 173.454 1024.16 171.213 1029.3 166.73C1034.45 162.248 1037.02 155.524 1037.02 146.56V138.176ZM1108.41 173.371C1110.68 173.371 1113 173.177 1115.38 172.79C1117.76 172.403 1119.7 171.932 1121.19 171.379V182.087C1119.59 182.806 1117.35 183.415 1114.47 183.913C1111.65 184.411 1108.88 184.66 1106.17 184.66C1101.36 184.66 1096.98 183.83 1093.05 182.17C1089.13 180.454 1085.97 177.577 1083.59 173.537C1081.27 169.497 1080.11 163.908 1080.11 156.77V102.814H1067.16V96.0908L1080.19 90.6953L1085.67 70.9395H1093.97V92.0234H1120.61V102.814H1093.97V156.354C1093.97 162.054 1095.27 166.315 1097.87 169.138C1100.53 171.96 1104.04 173.371 1108.41 173.371ZM1218.06 137.346C1218.06 144.816 1217.1 151.485 1215.16 157.351C1213.22 163.216 1210.43 168.169 1206.78 172.209C1203.12 176.249 1198.7 179.348 1193.49 181.506C1188.35 183.609 1182.51 184.66 1175.98 184.66C1169.89 184.66 1164.3 183.609 1159.21 181.506C1154.18 179.348 1149.8 176.249 1146.1 172.209C1142.44 168.169 1139.59 163.216 1137.55 157.351C1135.55 151.485 1134.56 144.816 1134.56 137.346C1134.56 127.385 1136.25 118.918 1139.62 111.945C1143 104.917 1147.81 99.5771 1154.07 95.9248C1160.37 92.2171 1167.87 90.3633 1176.56 90.3633C1184.86 90.3633 1192.11 92.2171 1198.31 95.9248C1204.56 99.6325 1209.4 105 1212.83 112.028C1216.32 119.001 1218.06 127.44 1218.06 137.346ZM1148.84 137.346C1148.84 144.65 1149.8 150.987 1151.74 156.354C1153.68 161.722 1156.67 165.873 1160.71 168.806C1164.75 171.739 1169.95 173.205 1176.31 173.205C1182.62 173.205 1187.79 171.739 1191.83 168.806C1195.93 165.873 1198.94 161.722 1200.88 156.354C1202.82 150.987 1203.79 144.65 1203.79 137.346C1203.79 130.096 1202.82 123.843 1200.88 118.586C1198.94 113.273 1195.96 109.178 1191.92 106.301C1187.88 103.423 1182.65 101.984 1176.23 101.984C1166.77 101.984 1159.82 105.111 1155.39 111.364C1151.02 117.618 1148.84 126.278 1148.84 137.346ZM1283.23 90.3633C1285.05 90.3633 1286.96 90.474 1288.95 90.6953C1290.95 90.8613 1292.72 91.1104 1294.27 91.4424L1292.52 104.226C1291.03 103.838 1289.37 103.534 1287.54 103.312C1285.72 103.091 1284 102.98 1282.4 102.98C1278.74 102.98 1275.28 103.728 1272.02 105.222C1268.81 106.66 1265.99 108.763 1263.55 111.53C1261.12 114.242 1259.21 117.535 1257.83 121.408C1256.44 125.227 1255.75 129.488 1255.75 134.191V183H1241.89V92.0234H1253.34L1254.84 108.791H1255.42C1257.3 105.415 1259.57 102.344 1262.22 99.5771C1264.88 96.7549 1267.95 94.5137 1271.44 92.8535C1274.98 91.1934 1278.91 90.3633 1283.23 90.3633ZM1346.48 90.3633C1354.22 90.3633 1360.87 92.0788 1366.4 95.5098C1371.93 98.9408 1376.17 103.755 1379.1 109.953C1382.03 116.096 1383.5 123.29 1383.5 131.535V140.085H1320.66C1320.83 150.765 1323.48 158.9 1328.63 164.489C1333.78 170.078 1341.03 172.873 1350.38 172.873C1356.13 172.873 1361.23 172.347 1365.65 171.296C1370.08 170.244 1374.67 168.695 1379.43 166.647V178.767C1374.84 180.814 1370.27 182.308 1365.74 183.249C1361.25 184.19 1355.94 184.66 1349.8 184.66C1341.05 184.66 1333.42 182.889 1326.89 179.348C1320.41 175.751 1315.38 170.493 1311.78 163.576C1308.18 156.659 1306.38 148.192 1306.38 138.176C1306.38 128.381 1308.02 119.914 1311.28 112.775C1314.6 105.581 1319.25 100.048 1325.23 96.1738C1331.26 92.3001 1338.34 90.3633 1346.48 90.3633ZM1346.31 101.652C1338.95 101.652 1333.09 104.06 1328.71 108.874C1324.34 113.688 1321.74 120.412 1320.91 129.045H1369.06C1369 123.622 1368.14 118.863 1366.48 114.768C1364.88 110.617 1362.42 107.408 1359.09 105.139C1355.77 102.814 1351.51 101.652 1346.31 101.652Z" fill="white"/>
    </svg>
    