<svg width="763" height="169" viewBox="0 0 763 169" fill="none" xmlns="http://www.w3.org/2000/svg">
<mask id="mask0_6_75" style="mask-type:luminance" maskUnits="userSpaceOnUse" x="0" y="0" width="167" height="169">
<path d="M166.4 0H0.757812V168.218H166.4V0Z" fill="white"/>
</mask>
<g mask="url(#mask0_6_75)">
<path d="M83.7551 99.0437C94.4621 99.0437 103.143 90.2287 103.143 79.3547C103.143 68.4807 94.4621 59.665 83.7551 59.665C73.0471 59.665 64.3672 68.4807 64.3672 79.3547C64.3672 90.2287 73.0471 99.0437 83.7551 99.0437Z" stroke="white" stroke-width="8.29182"/>
<path d="M83.2821 116.732C103.609 116.732 120.087 99.9977 120.087 79.3547C120.087 58.7119 103.609 41.9775 83.2821 41.9775C62.9556 41.9775 46.4775 58.7119 46.4775 79.3547C46.4775 99.9977 62.9556 116.732 83.2821 116.732Z" stroke="white" stroke-width="8.29182"/>
<path d="M83.3431 133.618C112.852 133.618 136.774 109.325 136.774 79.3567C136.774 49.3892 112.852 25.0957 83.3431 25.0957C53.8346 25.0957 29.9131 49.3892 29.9131 79.3567C29.9131 109.325 53.8346 133.618 83.3431 133.618Z" stroke="white" stroke-width="8.29182"/>
<path d="M83.5431 151.298C122.671 151.298 154.391 119.085 154.391 79.3487C154.391 39.612 122.671 7.39941 83.5431 7.39941C44.4156 7.39941 12.6963 39.612 12.6963 79.3487C12.6963 119.085 44.4156 151.298 83.5431 151.298Z" stroke="white" stroke-width="8.29182"/>
<path d="M83.8061 49.0629C87.2281 49.0629 90.0021 46.2458 90.0021 42.7707C90.0021 39.2956 87.2281 36.4785 83.8061 36.4785C80.3841 36.4785 77.6101 39.2956 77.6101 42.7707C77.6101 46.2458 80.3841 49.0629 83.8061 49.0629Z" fill="black" stroke="white" stroke-width="5.52788"/>
<path d="M47.568 89.9657C50.9898 89.9657 53.7639 87.1477 53.7639 83.6727C53.7639 80.1977 50.9898 77.3807 47.568 77.3807C44.1462 77.3807 41.3721 80.1977 41.3721 83.6727C41.3721 87.1477 44.1462 89.9657 47.568 89.9657Z" fill="black" stroke="white" stroke-width="5.52788"/>
<path d="M54.6941 131.53C58.8075 131.53 62.142 128.144 62.142 123.966C62.142 119.789 58.8075 116.403 54.6941 116.403C50.5806 116.403 47.2461 119.789 47.2461 123.966C47.2461 128.144 50.5806 131.53 54.6941 131.53Z" fill="black" stroke="white" stroke-width="6.90985"/>
<path d="M83.5421 160.057C87.9101 160.057 91.4501 156.46 91.4501 152.024C91.4501 147.589 87.9101 143.993 83.5421 143.993C79.1741 143.993 75.6341 147.589 75.6341 152.024C75.6341 156.46 79.1741 160.057 83.5421 160.057Z" fill="black" stroke="white" stroke-width="8.29182"/>
<path d="M28.5509 43.5578C32.9186 43.5578 36.4592 39.962 36.4592 35.5264C36.4592 31.0909 32.9186 27.4951 28.5509 27.4951C24.1832 27.4951 20.6426 31.0909 20.6426 35.5264C20.6426 39.962 24.1832 43.5578 28.5509 43.5578Z" fill="black" stroke="white" stroke-width="8.29182"/>
<path d="M137.012 39.4078C140.434 39.4078 143.208 36.5905 143.208 33.1154C143.208 29.6403 140.434 26.8232 137.012 26.8232C133.59 26.8232 130.816 29.6403 130.816 33.1154C130.816 36.5905 133.59 39.4078 137.012 39.4078Z" fill="black" stroke="white" stroke-width="5.52788"/>
<path d="M133.85 72.0377C137.964 72.0377 141.298 68.6517 141.298 64.4738C141.298 60.2965 137.964 56.9102 133.85 56.9102C129.737 56.9102 126.402 60.2965 126.402 64.4738C126.402 68.6517 129.737 72.0377 133.85 72.0377Z" fill="black" stroke="white" stroke-width="6.90985"/>
<path d="M160.427 0H154.464V6.0559H160.427V0Z" fill="white"/>
<path d="M166.396 6.05569H160.433V12.1115H166.396V6.05569Z" fill="white"/>
<path d="M160.427 12.1113H154.464V18.1672H160.427V12.1113Z" fill="white"/>
<path d="M154.477 6.05569H148.514V12.1115H154.477V6.05569Z" fill="white"/>
<path d="M160.427 150.049H154.464V156.105H160.427V150.049Z" fill="white"/>
<path d="M166.396 156.105H160.433V162.161H166.396V156.105Z" fill="white"/>
<path d="M160.427 162.161H154.464V168.217H160.427V162.161Z" fill="white"/>
<path d="M154.477 156.105H148.514V162.161H154.477V156.105Z" fill="white"/>
<path d="M14.6673 145.347H8.70411V151.403H14.6673V145.347Z" fill="white"/>
<path d="M22.6135 153.409H16.6504V159.464H22.6135V153.409Z" fill="white"/>
<path d="M14.6673 162.161H8.70411V168.217H14.6673V162.161Z" fill="white"/>
<path d="M6.72091 153.409H0.757812V159.464H6.72091V153.409Z" fill="white"/>
<path d="M16.6633 6.05569H10.7002V12.1115H16.6633V6.05569Z" fill="white"/>
<path d="M8.81271 13.8867H2.84961V19.9426H8.81271V13.8867Z" fill="white"/>
</g>
<path d="M226.057 114.141H213L232.895 55.3603H248.597L268.464 114.141H255.407L240.971 68.7939H240.521L226.057 114.141ZM225.241 91.0356H256.082V100.739H225.241V91.0356ZM287.585 55.3603V114.141H275.4V55.3603H287.585ZM366.799 75.9413H354.473C354.248 74.3138 353.789 72.8689 353.094 71.6065C352.401 70.3236 351.509 69.2309 350.421 68.3337C349.333 67.4338 348.076 66.7422 346.651 66.2666C345.244 65.7858 343.715 65.5492 342.063 65.5492C339.081 65.5492 336.482 66.3025 334.269 67.8169C332.055 69.3081 330.339 71.4908 329.119 74.3601C327.9 77.2088 327.29 80.6745 327.29 84.7495C327.29 88.9377 327.9 92.46 329.119 95.3138C330.357 98.1625 332.083 100.314 334.297 101.77C336.511 103.225 339.072 103.952 341.979 103.952C343.611 103.952 345.122 103.729 346.51 103.289C347.917 102.852 349.165 102.209 350.253 101.371C351.34 100.507 352.241 99.466 352.954 98.2396C353.685 97.0158 354.192 95.6172 354.473 94.0514L366.799 94.1054C366.48 96.805 365.683 99.4043 364.407 101.916C363.15 104.402 361.452 106.629 359.314 108.598C357.194 110.555 354.661 112.105 351.716 113.252C348.789 114.378 345.478 114.943 341.782 114.943C336.642 114.943 332.046 113.758 327.994 111.388C323.96 109.015 320.771 105.58 318.426 101.083C316.1 96.5864 314.937 91.1411 314.937 84.7495C314.937 78.34 316.119 72.8843 318.483 68.3876C320.846 63.8935 324.054 60.4663 328.107 58.1139C332.158 55.7383 336.717 54.5582 341.782 54.5582C345.122 54.5582 348.217 55.0312 351.068 55.9928C353.939 56.9466 356.481 58.3452 358.694 60.1784C360.908 61.9987 362.709 64.2252 364.097 66.8682C365.504 69.5112 366.405 72.5321 366.799 75.9413ZM394.84 115C390.469 115 386.689 114.056 383.5 112.162C380.329 110.246 377.881 107.59 376.155 104.179C374.429 100.754 373.566 96.7844 373.566 92.2672C373.566 87.7165 374.429 83.7366 376.155 80.33C377.881 76.9054 380.329 74.2444 383.5 72.3496C386.689 70.4342 390.469 69.4803 394.84 69.4803C399.211 69.4803 402.982 70.4342 406.152 72.3496C409.341 74.2444 411.799 76.9054 413.525 80.33C415.251 83.7366 416.114 87.7165 416.114 92.2672C416.114 96.7844 415.251 100.754 413.525 104.179C411.799 107.59 409.341 110.246 406.152 112.162C402.982 114.056 399.211 115 394.84 115ZM394.897 105.528C396.885 105.528 398.545 104.958 399.877 103.811C401.209 102.639 402.212 101.052 402.888 99.0418C403.582 97.0364 403.929 94.7482 403.929 92.1823C403.929 89.6216 403.582 87.3334 402.888 85.3203C402.212 83.3149 401.209 81.726 399.877 80.5588C398.545 79.3915 396.885 78.8105 394.897 78.8105C392.889 78.8105 391.2 79.3915 389.831 80.5588C388.481 81.726 387.458 83.3149 386.764 85.3203C386.088 87.3334 385.751 89.6216 385.751 92.1823C385.751 94.7482 386.088 97.0364 386.764 99.0418C387.458 101.052 388.481 102.639 389.831 103.811C391.2 104.958 392.889 105.528 394.897 105.528ZM423.908 114.141V70.0562H435.896V114.141H423.908ZM429.93 64.3717C428.149 64.3717 426.62 63.7675 425.344 62.5643C424.087 61.3354 423.458 59.8776 423.458 58.1679C423.458 56.4864 424.087 55.0415 425.344 53.8357C426.62 52.6119 428.149 52 429.93 52C431.713 52 433.232 52.6119 434.489 53.8357C435.765 55.0415 436.403 56.4864 436.403 58.1679C436.403 59.8776 435.765 61.3354 434.489 62.5643C433.232 63.7675 431.713 64.3717 429.93 64.3717ZM445.499 114.141V70.0562H456.923V77.831H457.43C458.331 75.2497 459.831 73.2134 461.932 71.7171C464.034 70.2285 466.548 69.4803 469.473 69.4803C472.438 69.4803 474.962 70.2362 477.043 71.7479C479.127 73.2391 480.514 75.2677 481.208 77.831H481.658C482.541 75.3037 484.136 73.288 486.442 71.7788C488.769 70.2465 491.519 69.4803 494.688 69.4803C498.722 69.4803 501.993 70.7941 504.51 73.414C507.041 76.0158 508.308 79.7103 508.308 84.4924V114.141H496.346V86.904C496.346 84.4539 495.709 82.613 494.434 81.3918C493.159 80.168 491.565 79.5535 489.65 79.5535C487.474 79.5535 485.777 80.2657 484.556 81.6797C483.337 83.0732 482.728 84.9218 482.728 87.2151V114.141H471.107V86.6444C471.107 84.4821 470.497 82.7596 469.276 81.4766C468.076 80.1937 466.491 79.5535 464.523 79.5535C463.189 79.5535 461.989 79.9006 460.919 80.5871C459.869 81.2607 459.035 82.2042 458.415 83.428C457.796 84.6338 457.486 86.0479 457.486 87.6753V114.141H445.499ZM518.002 114.141V55.3603H529.99V77.4607H530.354C530.881 76.2729 531.641 75.0671 532.634 73.8433C533.648 72.6015 534.961 71.5654 536.574 70.7427C538.205 69.8994 540.232 69.4803 542.651 69.4803C545.805 69.4803 548.71 70.3236 551.375 72.005C554.04 73.6736 556.169 76.1881 557.764 79.5535C559.359 82.901 560.155 87.1046 560.155 92.1566C560.155 97.0724 559.377 101.225 557.82 104.613C556.282 107.979 554.18 110.534 551.516 112.277C548.871 114 545.907 114.859 542.623 114.859C540.298 114.859 538.32 114.465 536.687 113.681C535.074 112.9 533.75 111.912 532.719 110.727C531.687 109.519 530.899 108.308 530.354 107.079H529.821V114.141H518.002ZM529.737 92.0949C529.737 94.7173 530.093 97.0055 530.804 98.9569C531.518 100.911 532.55 102.43 533.901 103.523C535.251 104.593 536.894 105.13 538.824 105.13C540.777 105.13 542.426 104.582 543.777 103.492C545.129 102.381 546.15 100.849 546.844 98.9004C547.558 96.931 547.914 94.6608 547.914 92.0949C547.914 89.5547 547.568 87.3128 546.872 85.382C546.178 83.4486 545.157 81.9368 543.805 80.8467C542.454 79.754 540.795 79.209 538.824 79.209C536.873 79.209 535.222 79.7335 533.873 80.7902C532.54 81.8417 531.518 83.3355 530.804 85.2663C530.093 87.1997 529.737 89.475 529.737 92.0949ZM580.48 114.974C577.72 114.974 575.263 114.486 573.105 113.509C570.95 112.514 569.242 111.048 567.985 109.12C566.747 107.164 566.127 104.734 566.127 101.826C566.127 99.3811 566.567 97.3192 567.45 95.6583C568.331 93.9897 569.532 92.6502 571.052 91.6373C572.573 90.6269 574.298 89.8581 576.231 89.3439C578.181 88.8272 580.227 88.4646 582.364 88.2512C584.878 87.9839 586.905 87.737 588.444 87.5031C589.982 87.2563 591.098 86.8938 591.792 86.413C592.485 85.9373 592.834 85.2303 592.834 84.2919V84.1196C592.834 82.3019 592.27 80.8956 591.144 79.9006C590.038 78.9056 588.461 78.4069 586.416 78.4069C584.258 78.4069 582.543 78.8954 581.266 79.8698C579.991 80.8262 579.146 82.032 578.734 83.4872L567.648 82.5693C568.211 79.8903 569.317 77.5713 570.968 75.6224C572.619 73.653 574.748 72.1413 577.357 71.0872C579.983 70.0151 583.022 69.4803 586.472 69.4803C588.874 69.4803 591.172 69.7683 593.366 70.3442C595.58 70.9149 597.541 71.8045 599.248 73.0103C600.974 74.2187 602.333 75.7639 603.329 77.6587C604.322 79.5381 604.821 81.7852 604.821 84.4076V114.141H593.451V108.027H593.115C592.419 109.403 591.492 110.619 590.328 111.671C589.165 112.707 587.768 113.519 586.135 114.11C584.504 114.686 582.617 114.974 580.48 114.974ZM583.913 106.534C585.676 106.534 587.233 106.179 588.584 105.472C589.933 104.744 590.993 103.77 591.764 102.549C592.532 101.32 592.918 99.9313 592.918 98.3862V93.7069C592.542 93.9537 592.025 94.1825 591.369 94.3934C590.732 94.5862 590.01 94.7688 589.201 94.941C588.395 95.0927 587.589 95.2367 586.782 95.3704C585.976 95.4861 585.244 95.5915 584.588 95.6866C583.181 95.8949 581.952 96.2342 580.902 96.6867C579.85 97.147 579.034 97.7691 578.453 98.5558C577.871 99.3194 577.58 100.278 577.58 101.425C577.58 103.089 578.171 104.361 579.354 105.246C580.554 106.104 582.075 106.534 583.913 106.534ZM637.111 70.0562V79.2398H611.08V70.0562H637.111ZM616.991 59.4919H628.978V100.592C628.978 101.723 629.147 102.603 629.485 103.235C629.823 103.847 630.291 104.276 630.89 104.528C631.51 104.775 632.224 104.896 633.03 104.896C633.594 104.896 634.157 104.852 634.717 104.755C635.28 104.639 635.713 104.554 636.013 104.497L637.899 113.596C637.298 113.787 636.453 114.005 635.365 114.257C634.277 114.524 632.956 114.686 631.397 114.743C628.51 114.859 625.976 114.465 623.8 113.565C621.642 112.666 619.965 111.272 618.765 109.377C617.561 107.482 616.973 105.089 616.991 102.199V59.4919ZM663.984 115C659.614 115 655.833 114.056 652.644 112.162C649.472 110.246 647.025 107.59 645.3 104.179C643.574 100.754 642.712 96.7844 642.712 92.2672C642.712 87.7165 643.574 83.7366 645.3 80.33C647.025 76.9054 649.472 74.2444 652.644 72.3496C655.833 70.4342 659.614 69.4803 663.984 69.4803C668.356 69.4803 672.127 70.4342 675.296 72.3496C678.485 74.2444 680.943 76.9054 682.67 80.33C684.396 83.7366 685.258 87.7165 685.258 92.2672C685.258 96.7844 684.396 100.754 682.67 104.179C680.943 107.59 678.485 110.246 675.296 112.162C672.127 114.056 668.356 115 663.984 115ZM664.04 105.528C666.029 105.528 667.69 104.958 669.021 103.811C670.353 102.639 671.356 101.052 672.032 99.0418C672.725 97.0364 673.074 94.7482 673.074 92.1823C673.074 89.6216 672.725 87.3334 672.032 85.3203C671.356 83.3149 670.353 81.726 669.021 80.5588C667.69 79.3915 666.029 78.8105 664.04 78.8105C662.033 78.8105 660.344 79.3915 658.977 80.5588C657.625 81.726 656.601 83.3149 655.907 85.3203C655.232 87.3334 654.894 89.6216 654.894 92.1823C654.894 94.7482 655.232 97.0364 655.907 99.0418C656.601 101.052 657.625 102.639 658.977 103.811C660.344 104.958 662.033 105.528 664.04 105.528ZM693.056 114.141V70.0562H704.675V77.7435H705.125C705.911 75.0105 707.234 72.946 709.09 71.5448C710.949 70.1308 713.089 69.4237 715.51 69.4237C716.109 69.4237 716.757 69.4597 717.451 69.5343C718.144 69.6166 718.754 69.7168 719.278 69.8531V80.7053C718.715 80.5331 717.937 80.3762 716.946 80.2451C715.951 80.1089 715.039 80.042 714.212 80.042C712.449 80.042 710.874 80.4379 709.487 81.2195C708.115 81.9831 707.03 83.0578 706.223 84.4333C705.435 85.8114 705.041 87.3977 705.041 89.1974V114.141H693.056ZM743.164 115C738.718 115 734.888 114.085 731.681 112.246C728.491 110.393 726.034 107.77 724.311 104.382C722.583 100.978 721.72 96.9516 721.72 92.298C721.72 87.7628 722.583 83.7854 724.311 80.3557C726.034 76.9311 728.465 74.2624 731.596 72.3496C734.75 70.4342 738.446 69.4803 742.685 69.4803C745.537 69.4803 748.191 69.9482 750.649 70.8892C753.124 71.8045 755.285 73.1928 757.123 75.0465C758.978 76.9054 760.42 79.2399 761.456 82.0526C762.485 84.8472 763 88.115 763 91.8686V95.229H726.505V87.6496H751.719C751.719 85.8885 751.343 84.3253 750.595 82.973C749.84 81.6129 748.801 80.5485 747.47 79.7849C746.156 79.0008 744.626 78.6074 742.882 78.6074C741.06 78.6074 739.45 79.0367 738.039 79.9006C736.652 80.7388 735.564 81.8803 734.775 83.3149C733.987 84.7315 733.588 86.3127 733.567 88.0507V95.2521C733.567 97.4349 733.964 99.3194 734.75 100.911C735.559 102.497 736.693 103.724 738.152 104.582C739.619 105.441 741.352 105.876 743.358 105.876C744.69 105.876 745.908 105.685 747.019 105.3C748.122 104.917 749.075 104.346 749.86 103.577C750.649 102.816 751.248 101.875 751.66 100.764L762.747 101.513C762.183 104.23 761.034 106.603 759.286 108.629C757.563 110.64 755.328 112.205 752.589 113.339C749.871 114.45 746.727 115 743.164 115Z" fill="white"/>
</svg>
