<svg width="352" height="358" viewBox="0 0 352 358" fill="none" xmlns="http://www.w3.org/2000/svg">
<mask id="mask0_318_6" style="mask-type:luminance" maskUnits="userSpaceOnUse" x="0" y="0" width="352" height="358">
<path d="M352 0H0V357.495H352V0Z" fill="white"/>
</mask>
<g mask="url(#mask0_318_6)">
<path d="M176.374 210.487C199.127 210.487 217.575 191.754 217.575 168.644C217.575 145.535 199.127 126.8 176.374 126.8C153.619 126.8 135.174 145.535 135.174 168.644C135.174 191.754 153.619 210.487 176.374 210.487Z" stroke="white" stroke-width="8.29182"/>
<path d="M175.369 248.078C218.565 248.078 253.582 212.515 253.582 168.644C253.582 124.774 218.565 89.2103 175.369 89.2103C132.174 89.2103 97.1567 124.774 97.1567 168.644C97.1567 212.515 132.174 248.078 175.369 248.078Z" stroke="white" stroke-width="8.29182"/>
<path d="M175.499 283.964C238.207 283.964 289.043 232.336 289.043 168.648C289.043 104.962 238.207 53.3332 175.499 53.3332C112.792 53.3332 61.957 104.962 61.957 168.648C61.957 232.336 112.792 283.964 175.499 283.964Z" stroke="white" stroke-width="8.29182"/>
<path d="M175.924 321.537C259.073 321.537 326.48 253.078 326.48 168.631C326.48 84.1832 259.073 15.7252 175.924 15.7252C92.7756 15.7252 25.3701 84.1832 25.3701 168.631C25.3701 253.078 92.7756 321.537 175.924 321.537Z" stroke="white" stroke-width="8.29182"/>
<path d="M176.483 104.268C183.755 104.268 189.65 98.2814 189.65 90.8961C189.65 83.5108 183.755 77.5239 176.483 77.5239C169.211 77.5239 163.316 83.5108 163.316 90.8961C163.316 98.2814 169.211 104.268 176.483 104.268Z" fill="white" stroke="white" stroke-width="5.52788"/>
<path d="M99.4743 191.195C106.746 191.195 112.641 185.206 112.641 177.821C112.641 170.436 106.746 164.449 99.4743 164.449C92.2027 164.449 86.3076 170.436 86.3076 177.821C86.3076 185.206 92.2027 191.195 99.4743 191.195Z" fill="white" stroke="white" stroke-width="5.52788"/>
<path d="M114.617 279.526C123.359 279.526 130.445 272.33 130.445 263.451C130.445 254.574 123.359 247.379 114.617 247.379C105.876 247.379 98.79 254.574 98.79 263.451C98.79 272.33 105.876 279.526 114.617 279.526Z" fill="white" stroke="white" stroke-width="6.90985"/>
<path d="M175.921 340.152C185.203 340.152 192.726 332.507 192.726 323.08C192.726 313.655 185.203 306.013 175.921 306.013C166.639 306.013 159.116 313.655 159.116 323.08C159.116 332.507 166.639 340.152 175.921 340.152Z" fill="white" stroke="white" stroke-width="8.29182"/>
<path d="M59.0625 92.5689C68.3441 92.5689 75.8681 84.9271 75.8681 75.5006C75.8681 66.0743 68.3441 58.4325 59.0625 58.4325C49.7808 58.4325 42.2568 66.0743 42.2568 75.5006C42.2568 84.9271 49.7808 92.5689 59.0625 92.5689Z" fill="white" stroke="white" stroke-width="8.29182"/>
<path d="M289.549 83.7492C296.821 83.7492 302.716 77.7619 302.716 70.3766C302.716 62.9913 296.821 57.0045 289.549 57.0045C282.277 57.0045 276.382 62.9913 276.382 70.3766C276.382 77.7619 282.277 83.7492 289.549 83.7492Z" fill="white" stroke="white" stroke-width="5.52788"/>
<path d="M282.829 153.094C291.571 153.094 298.656 145.898 298.656 137.019C298.656 128.142 291.571 120.945 282.829 120.945C274.089 120.945 267.001 128.142 267.001 137.019C267.001 145.898 274.089 153.094 282.829 153.094Z" fill="white" stroke="white" stroke-width="6.90985"/>
<path d="M339.307 0H326.635V12.87H339.307V0Z" fill="white"/>
<path d="M351.991 12.8696H339.319V25.7393H351.991V12.8696Z" fill="white"/>
<path d="M339.307 25.7388H326.635V38.6088H339.307V25.7388Z" fill="white"/>
<path d="M326.663 12.8696H313.991V25.7393H326.663V12.8696Z" fill="white"/>
<path d="M339.307 318.883H326.635V331.753H339.307V318.883Z" fill="white"/>
<path d="M351.991 331.753H339.319V344.623H351.991V331.753Z" fill="white"/>
<path d="M339.307 344.623H326.635V357.493H339.307V344.623Z" fill="white"/>
<path d="M326.663 331.753H313.991V344.623H326.663V331.753Z" fill="white"/>
<path d="M29.5584 308.89H16.8862V321.76H29.5584V308.89Z" fill="white"/>
<path d="M46.4444 326.023H33.7725V338.891H46.4444V326.023Z" fill="white"/>
<path d="M29.5584 344.623H16.8862V357.493H29.5584V344.623Z" fill="white"/>
<path d="M12.672 326.023H0V338.891H12.672V326.023Z" fill="white"/>
<path d="M33.7999 12.8696H21.1279V25.7393H33.7999V12.8696Z" fill="white"/>
<path d="M17.1173 29.512H4.44531V42.3819H17.1173V29.512Z" fill="white"/>
</g>
</svg>
