<svg width="201" height="94" viewBox="0 0 1493 227" fill="none" xmlns="http://www.w3.org/2000/svg">
<path d="M111.239 133.066C125.589 133.066 137.224 121.223 137.224 106.614C137.224 92.0043 125.589 80.1604 111.239 80.1604C96.8873 80.1604 85.2539 92.0043 85.2539 106.614C85.2539 121.223 96.8873 133.066 111.239 133.066Z" stroke="white" stroke-width="8.29182"/>
<path d="M110.605 156.83C137.849 156.83 159.934 134.348 159.934 106.614C159.934 78.88 137.849 56.3972 110.605 56.3972C83.362 56.3972 61.2769 78.88 61.2769 106.614C61.2769 134.348 83.362 156.83 110.605 156.83Z" stroke="white" stroke-width="8.29182"/>
<path d="M110.687 179.516C150.237 179.516 182.299 146.878 182.299 106.616C182.299 66.3545 150.237 33.7161 110.687 33.7161C71.1375 33.7161 39.0762 66.3545 39.0762 106.616C39.0762 146.878 71.1375 179.516 110.687 179.516Z" stroke="white" stroke-width="8.29182"/>
<path d="M110.955 203.269C163.397 203.269 205.91 159.991 205.91 106.605C205.91 53.2187 163.397 9.94092 110.955 9.94092C58.5134 9.94092 16.001 53.2187 16.001 106.605C16.001 159.991 58.5134 203.269 110.955 203.269Z" stroke="white" stroke-width="8.29182"/>
<path d="M111.307 65.9162C115.894 65.9162 119.612 62.1315 119.612 57.4626C119.612 52.7938 115.894 49.009 111.307 49.009C106.721 49.009 103.003 52.7938 103.003 57.4626C103.003 62.1315 106.721 65.9162 111.307 65.9162Z" fill="black" stroke="white" stroke-width="5.52788"/>
<path d="M62.7383 120.869C67.3244 120.869 71.0425 117.083 71.0425 112.415C71.0425 107.746 67.3244 103.961 62.7383 103.961C58.1521 103.961 54.4341 107.746 54.4341 112.415C54.4341 117.083 58.1521 120.869 62.7383 120.869Z" fill="black" stroke="white" stroke-width="5.52788"/>
<path d="M72.289 176.711C77.802 176.711 82.2712 172.162 82.2712 166.549C82.2712 160.937 77.802 156.388 72.289 156.388C66.7758 156.388 62.3066 160.937 62.3066 166.549C62.3066 172.162 66.7758 176.711 72.289 176.711Z" fill="black" stroke="white" stroke-width="6.90985"/>
<path d="M110.953 215.037C116.807 215.037 121.552 210.205 121.552 204.245C121.552 198.286 116.807 193.455 110.953 193.455C105.099 193.455 100.354 198.286 100.354 204.245C100.354 210.205 105.099 215.037 110.953 215.037Z" fill="black" stroke="white" stroke-width="8.29182"/>
<path d="M37.2506 58.5203C43.1045 58.5203 47.8499 53.6893 47.8499 47.73C47.8499 41.7709 43.1045 36.9399 37.2506 36.9399C31.3967 36.9399 26.6514 41.7709 26.6514 47.73C26.6514 53.6893 31.3967 58.5203 37.2506 58.5203Z" fill="black" stroke="white" stroke-width="8.29182"/>
<path d="M182.618 52.9446C187.204 52.9446 190.922 49.1595 190.922 44.4907C190.922 39.8219 187.204 36.0371 182.618 36.0371C178.031 36.0371 174.313 39.8219 174.313 44.4907C174.313 49.1595 178.031 52.9446 182.618 52.9446Z" fill="black" stroke="white" stroke-width="5.52788"/>
<path d="M178.379 96.7829C183.893 96.7829 188.362 92.2337 188.362 86.6207C188.362 81.0085 183.893 76.459 178.379 76.459C172.867 76.459 168.397 81.0085 168.397 86.6207C168.397 92.2337 172.867 96.7829 178.379 96.7829Z" fill="black" stroke="white" stroke-width="6.90985"/>
<path d="M214 0H206.008V8.13614H214V0Z" fill="white"/>
<path d="M222 8.13599H214.008V16.272H222V8.13599Z" fill="white"/>
<path d="M214 16.2715H206.008V24.4076H214V16.2715Z" fill="white"/>
<path d="M206.026 8.13599H198.034V16.272H206.026V8.13599Z" fill="white"/>
<path d="M214 201.591H206.008V209.727H214V201.591Z" fill="white"/>
<path d="M222 209.728H214.008V217.864H222V209.728Z" fill="white"/>
<path d="M214 217.864H206.008V226H214V217.864Z" fill="white"/>
<path d="M206.026 209.728H198.034V217.864H206.026V209.728Z" fill="white"/>
<path d="M18.6422 195.274H10.6499V203.41H18.6422V195.274Z" fill="white"/>
<path d="M29.2925 206.105H21.3003V214.24H29.2925V206.105Z" fill="white"/>
<path d="M18.6422 217.864H10.6499V226H18.6422V217.864Z" fill="white"/>
<path d="M7.99217 206.105H0V214.24H7.99217V206.105Z" fill="white"/>
<path d="M21.3179 8.13599H13.3257V16.272H21.3179V8.13599Z" fill="white"/>
<path d="M10.7959 18.657H2.80371V26.7931H10.7959V18.657Z" fill="white"/>
<path d="M349.72 183L334.778 144.484H286.136L271.277 183H257L304.48 61.1445H317.181L364.329 183H349.72ZM330.545 131.95L316.351 93.6836C316.019 92.6875 315.465 91.055 314.69 88.7861C313.971 86.5173 313.224 84.1654 312.449 81.7305C311.674 79.2956 311.038 77.3311 310.54 75.8369C309.987 78.1058 309.378 80.3747 308.714 82.6436C308.105 84.8571 307.496 86.9323 306.888 88.8691C306.279 90.7507 305.753 92.3555 305.311 93.6836L290.867 131.95H330.545ZM381.18 183V61.6426H395.291V183H381.18ZM510.091 183H495.896V74.0938H457.713V61.6426H548.108V74.0938H510.091V183ZM598.411 90.5293C609.257 90.5293 617.309 92.9642 622.566 97.834C627.824 102.704 630.452 110.479 630.452 121.159V183H620.408L617.752 169.553H617.088C614.542 172.873 611.886 175.668 609.119 177.937C606.352 180.15 603.143 181.838 599.49 183C595.893 184.107 591.466 184.66 586.209 184.66C580.675 184.66 575.75 183.692 571.434 181.755C567.173 179.818 563.797 176.885 561.307 172.956C558.872 169.027 557.654 164.047 557.654 158.015C557.654 148.939 561.251 141.966 568.445 137.097C575.639 132.227 586.596 129.571 601.316 129.128L617.005 128.464V122.902C617.005 115.044 615.317 109.538 611.941 106.384C608.566 103.229 603.807 101.652 597.664 101.652C592.905 101.652 588.367 102.344 584.051 103.728C579.734 105.111 575.639 106.743 571.766 108.625L567.532 98.166C571.627 96.0632 576.331 94.2646 581.644 92.7705C586.956 91.2764 592.545 90.5293 598.411 90.5293ZM616.839 138.176L602.977 138.757C591.632 139.2 583.636 141.053 578.987 144.318C574.339 147.583 572.015 152.204 572.015 158.181C572.015 163.382 573.592 167.229 576.746 169.719C579.9 172.209 584.078 173.454 589.28 173.454C597.36 173.454 603.973 171.213 609.119 166.73C614.266 162.248 616.839 155.524 616.839 146.56V138.176ZM757.62 90.3633C767.636 90.3633 775.19 92.9919 780.281 98.249C785.372 103.451 787.918 111.835 787.918 123.4V183H774.305V124.064C774.305 116.704 772.7 111.198 769.49 107.546C766.336 103.838 761.632 101.984 755.379 101.984C746.58 101.984 740.188 104.53 736.204 109.621C732.22 114.712 730.228 122.211 730.228 132.116V183H716.531V124.064C716.531 119.139 715.812 115.044 714.373 111.779C712.99 108.514 710.887 106.079 708.064 104.475C705.298 102.814 701.784 101.984 697.522 101.984C691.491 101.984 686.648 103.229 682.996 105.72C679.344 108.21 676.688 111.918 675.027 116.843C673.423 121.713 672.62 127.717 672.62 134.855V183H658.841V92.0234H669.964L672.039 104.89H672.786C674.612 101.735 676.909 99.0791 679.676 96.9209C682.443 94.7627 685.542 93.1302 688.973 92.0234C692.404 90.9167 696.056 90.3633 699.93 90.3633C706.847 90.3633 712.63 91.6637 717.278 94.2646C721.982 96.8102 725.385 100.712 727.488 105.969H728.235C731.224 100.712 735.319 96.8102 740.521 94.2646C745.722 91.6637 751.422 90.3633 757.62 90.3633ZM830.003 92.0234V183H816.224V92.0234H830.003ZM823.279 57.9902C825.548 57.9902 827.485 58.7373 829.09 60.2314C830.75 61.6702 831.58 63.9391 831.58 67.0381C831.58 70.0817 830.75 72.3506 829.09 73.8447C827.485 75.3389 825.548 76.0859 823.279 76.0859C820.9 76.0859 818.908 75.3389 817.303 73.8447C815.753 72.3506 814.979 70.0817 814.979 67.0381C814.979 63.9391 815.753 61.6702 817.303 60.2314C818.908 58.7373 820.9 57.9902 823.279 57.9902ZM873.084 183H859.222V53.8398H873.084V183ZM1043.33 183H1027.06L960.906 81.0664H960.242C960.408 83.778 960.602 86.877 960.823 90.3633C961.045 93.7943 961.211 97.4743 961.321 101.403C961.487 105.277 961.57 109.234 961.57 113.273V183H948.455V61.6426H964.642L1030.55 163.244H1031.13C1031.02 161.307 1030.88 158.568 1030.72 155.026C1030.55 151.429 1030.38 147.583 1030.22 143.488C1030.11 139.338 1030.05 135.492 1030.05 131.95V61.6426H1043.33V183ZM1108.41 90.5293C1119.26 90.5293 1127.31 92.9642 1132.57 97.834C1137.82 102.704 1140.45 110.479 1140.45 121.159V183H1130.41L1127.75 169.553H1127.09C1124.54 172.873 1121.89 175.668 1119.12 177.937C1116.35 180.15 1113.14 181.838 1109.49 183C1105.89 184.107 1101.47 184.66 1096.21 184.66C1090.68 184.66 1085.75 183.692 1081.43 181.755C1077.17 179.818 1073.8 176.885 1071.31 172.956C1068.87 169.027 1067.65 164.047 1067.65 158.015C1067.65 148.939 1071.25 141.966 1078.45 137.097C1085.64 132.227 1096.6 129.571 1111.32 129.128L1127 128.464V122.902C1127 115.044 1125.32 109.538 1121.94 106.384C1118.57 103.229 1113.81 101.652 1107.66 101.652C1102.9 101.652 1098.37 102.344 1094.05 103.728C1089.73 105.111 1085.64 106.743 1081.77 108.625L1077.53 98.166C1081.63 96.0632 1086.33 94.2646 1091.64 92.7705C1096.96 91.2764 1102.55 90.5293 1108.41 90.5293ZM1126.84 138.176L1112.98 138.757C1101.63 139.2 1093.64 141.053 1088.99 144.318C1084.34 147.583 1082.01 152.204 1082.01 158.181C1082.01 163.382 1083.59 167.229 1086.75 169.719C1089.9 172.209 1094.08 173.454 1099.28 173.454C1107.36 173.454 1113.97 171.213 1119.12 166.73C1124.27 162.248 1126.84 155.524 1126.84 146.56V138.176ZM1201.21 184.66C1189.7 184.66 1180.57 180.731 1173.82 172.873C1167.13 165.015 1163.78 153.339 1163.78 137.844C1163.78 122.183 1167.21 110.368 1174.07 102.399C1180.93 94.3753 1190.06 90.3633 1201.46 90.3633C1206.28 90.3633 1210.48 90.9997 1214.08 92.2725C1217.68 93.5452 1220.78 95.2607 1223.38 97.4189C1225.98 99.5218 1228.16 101.929 1229.93 104.641H1230.93C1230.71 102.925 1230.49 100.573 1230.27 97.585C1230.05 94.5967 1229.93 92.1618 1229.93 90.2803V53.8398H1243.71V183H1232.59L1230.52 170.051H1229.93C1228.22 172.762 1226.03 175.225 1223.38 177.438C1220.78 179.652 1217.65 181.423 1214 182.751C1210.4 184.024 1206.14 184.66 1201.21 184.66ZM1203.37 173.205C1213.11 173.205 1220 170.438 1224.04 164.904C1228.08 159.37 1230.1 151.153 1230.1 140.251V137.761C1230.1 126.195 1228.16 117.313 1224.29 111.115C1220.47 104.917 1213.5 101.818 1203.37 101.818C1194.91 101.818 1188.57 105.083 1184.36 111.613C1180.16 118.088 1178.05 126.942 1178.05 138.176C1178.05 149.354 1180.13 157.987 1184.28 164.074C1188.49 170.161 1194.85 173.205 1203.37 173.205ZM1348.05 92.0234V183H1336.77L1334.77 170.217H1334.03C1332.14 173.371 1329.71 176.027 1326.72 178.186C1323.73 180.344 1320.36 181.949 1316.59 183C1312.89 184.107 1308.93 184.66 1304.72 184.66C1297.53 184.66 1291.5 183.498 1286.63 181.174C1281.76 178.85 1278.08 175.253 1275.59 170.383C1273.15 165.513 1271.94 159.26 1271.94 151.623V92.0234H1285.88V150.627C1285.88 158.208 1287.6 163.881 1291.03 167.644C1294.46 171.351 1299.69 173.205 1306.72 173.205C1313.47 173.205 1318.84 171.932 1322.82 169.387C1326.86 166.841 1329.77 163.106 1331.54 158.181C1333.31 153.2 1334.19 147.113 1334.19 139.919V92.0234H1348.05Z" fill="white"/>
</svg>
