<svg class='w-4 h-4 fill-current' viewBox="0 0 24 25" fill="none" xmlns="http://www.w3.org/2000/svg">
    <path
        d="M7.41016 2.5C7.05632 2.5 6.75061 2.74731 6.6767 3.09336L4.4267 13.6285C4.37942 13.8499 4.43468 14.0809 4.57707 14.2569C4.71947 14.4329 4.93376 14.5352 5.16016 14.5352H10.6842L10.0637 21.6852C10.0338 22.0302 10.244 22.3509 10.5724 22.4611C10.9008 22.5712 11.2619 22.4422 11.4461 22.1489L19.4749 9.36368C19.6201 9.13255 19.6282 8.84081 19.4962 8.60195C19.3641 8.36309 19.1127 8.21482 18.8398 8.21482L13.1876 8.21482L15.368 3.56863C15.477 3.33632 15.4597 3.0644 15.3221 2.8478C15.1845 2.6312 14.9457 2.5 14.6891 2.5H7.41016Z"
        fill="currentColor" />
</svg>