<svg width="22" height="26" viewBox="0 0 22 26" fill="none" xmlns="http://www.w3.org/2000/svg" class="h-3">
    <path d="M13 20.5833H8.66667C8.36767 20.5833 8.125 20.826 8.125 21.125C8.125 21.424 8.36767 21.6667 8.66667 21.6667H13C13.299 21.6667 13.5417 21.424 13.5417 21.125C13.5417 20.826 13.299 20.5833 13 20.5833ZM13 22.75H8.66667C8.36767 22.75 8.125 22.9927 8.125 23.2917C8.125 23.5907 8.36767 23.8333 8.66667 23.8333H13C13.299 23.8333 13.5417 23.5907 13.5417 23.2917C13.5417 22.9927 13.299 22.75 13 22.75ZM13.2708 24.9167H8.39583L9.68283 25.7638C9.84967 25.9133 10.0945 26 10.3491 26H11.3187C11.5722 26 11.8181 25.9133 11.9849 25.7638L13.2708 24.9167ZM17.3333 9.96775C17.3333 13.8342 13.8515 16.4493 13.8515 19.5H7.81517C7.81517 16.4493 4.33333 13.8342 4.33333 9.96775C4.33333 5.9345 7.58117 3.71475 10.8301 3.71475C14.0812 3.71475 17.3333 5.93667 17.3333 9.96775ZM21.6667 9.21917V10.7055H18.9172C18.9388 10.4639 18.9583 10.2202 18.9583 9.96775C18.9583 9.711 18.9399 9.46508 18.9204 9.22025H21.6667V9.21917ZM10.1313 2.12008V0H11.6166V2.12767C11.3544 2.10383 11.0922 2.08975 10.8301 2.08975C10.5972 2.08975 10.3642 2.10058 10.1313 2.12008ZM6.07642 3.52192L4.94975 1.42025L6.25842 0.71825L7.38183 2.81233C6.929 3.00842 6.49133 3.24675 6.07642 3.52192ZM17.5446 5.4015L19.6484 3.89133L20.514 5.09925L18.2888 6.695C18.0819 6.22917 17.8306 5.79908 17.5446 5.4015ZM14.2837 2.81342L15.4082 0.71825L16.7169 1.42025L15.5892 3.523C15.1753 3.24783 14.7377 3.01058 14.2837 2.81342ZM3.37675 6.695L1.15158 5.10033L2.01717 3.89242L4.121 5.4015C3.835 5.798 3.58475 6.22808 3.37675 6.695ZM18.226 13.4366L20.7762 14.4701L20.2193 15.847L17.5922 14.7832C17.8197 14.3531 18.0342 13.9035 18.226 13.4366ZM4.02567 14.6878L1.47333 15.8362L0.8645 14.4809L3.3995 13.3413C3.58692 13.8103 3.80142 14.2567 4.02567 14.6878ZM2.7495 10.7055H0V9.21917H2.74625C2.72675 9.464 2.70833 9.711 2.70833 9.96775C2.70833 10.2202 2.72783 10.4639 2.7495 10.7055Z" fill="currentColor"></path>
</svg>