<svg xmlns="http://www.w3.org/2000/svg" viewBox="0 0 14 14" xmlns:v="https://vecta.io/nano"><path d="M.913.921C1.499.332 2.293 0 3.123 0h7.753c.83 0 1.625.332 2.21.921S14 2.307 14 3.137v4.992c-.004.385-.094.842-.237 1.199-.15.354-.408.742-.676 1.018a3.51 3.51 0 0 1-1.014.681 3.5 3.5 0 0 1-1.197.239h-.753v1.301h-.002c-.001.225-.058.511-.143.694-.115.204-.366.458-.57.576h0l-.003.001c-.176.086-.46.155-.655.16h-.003a1.48 1.48 0 0 1-1.038-.438l-2.315-2.295H3.123c-.83 0-1.625-.332-2.21-.921-.268-.275-.526-.663-.676-1.018C.094 8.971.004 8.514 0 8.129V3.137C0 2.307.328 1.509.913.921zm2.21.674a1.52 1.52 0 0 0-1.079.45 1.55 1.55 0 0 0-.449 1.092v4.992c-.004.23.026.381.117.592.084.213.169.341.332.501a1.52 1.52 0 0 0 1.079.45h2.6c.21 0 .412.083.561.231l2.243 2.224v-1.657a.8.8 0 0 1 .797-.797h1.551a1.24 1.24 0 0 0 .583-.117 1.25 1.25 0 0 0 .496-.333c.164-.159.249-.287.332-.501.091-.211.121-.362.117-.592V3.137a1.55 1.55 0 0 0-.449-1.092 1.52 1.52 0 0 0-1.079-.45H3.123z"/></svg>