<svg xmlns="http://www.w3.org/2000/svg"  viewBox="0 0 68 68" width="150px" height="150px"><path fill="#febb50" d="M66,34.0049744C66,51.6779785,51.6779785,66,34.0049744,66C16.321991,66,2,51.6779785,2,34.0049744 C2,16.3320007,16.321991,2,34.0049744,2C51.6779785,2,66,16.3320007,66,34.0049744"/><path d="M28.7714844,28.2364807c0,0.5110168-0.0460205,0.9980164-0.1390076,1.4840088 c-0.6960144,4.0710144-4.256012,7.1669922-8.5240173,7.1669922c-1.4729919,0-2.8529968-0.3709717-4.0699768-1.019989 c-2.7250061-1.4499817-4.5810242-4.3259888-4.5810242-7.631012c0-4.7889709,3.8740234-8.6629944,8.651001-8.6629944 C24.8864746,19.5734863,28.7714844,23.4475098,28.7714844,28.2364807"/><path fill="#fff" d="M25.9624023,25.6797791c0,1.4150085-1.1480103,2.5510254-2.5630188,2.5510254 c-1.4029846,0-2.5509949-1.1360168-2.5509949-2.5510254c0-1.414978,1.1480103-2.5509949,2.5509949-2.5509949 C24.8143921,23.1287842,25.9624023,24.264801,25.9624023,25.6797791"/><path fill="#fff" d="M16.5204773,29.3911743c0,0.9860229-0.8000183,1.7770081-1.7850037,1.7770081 c-0.9779968,0-1.7770081-0.7909851-1.7770081-1.7770081c0-0.9849854,0.7990112-1.7769775,1.7770081-1.7769775 C15.720459,27.6141968,16.5204773,28.406189,16.5204773,29.3911743"/><path d="M33.7592773,40.2129822c-5.9670105,0-10.8210144,4.8580017-10.8210144,10.8310242 c0,0.7630005,0.618988,1.3819885,1.3829956,1.3819885c0.7630005,0,1.382019-0.618988,1.382019-1.3819885 c0-4.447998,3.6139832-8.0660095,8.0559998-8.0660095c4.446991,0,8.065979,3.6180115,8.065979,8.0660095 c0,0.7630005,0.6190186,1.3819885,1.382019,1.3819885c0.7639771,0,1.3829956-0.618988,1.3829956-1.3819885 C44.590271,45.0709839,39.7312622,40.2129822,33.7592773,40.2129822"/><path d="M56.5419922,28.2364807c0,0.5110168-0.0460205,0.9980164-0.1390076,1.4840088 c-0.6960144,4.0710144-4.256012,7.1669922-8.5240173,7.1669922c-1.4719849,0-2.8529968-0.3709717-4.0699768-1.019989 c-2.7250061-1.4499817-4.5810242-4.3259888-4.5810242-7.631012c0-4.7889709,3.8740234-8.6629944,8.651001-8.6629944 C52.6569824,19.5734863,56.5419922,23.4475098,56.5419922,28.2364807"/><path fill="#fff" d="M53.7328796,25.6797791c0,1.4150085-1.1480103,2.5510254-2.5630188,2.5510254 c-1.4029846,0-2.5509949-1.1360168-2.5509949-2.5510254c0-1.414978,1.1480103-2.5509949,2.5509949-2.5509949 C52.5848694,23.1287842,53.7328796,24.264801,53.7328796,25.6797791"/><path fill="#fff" d="M44.2909851,29.3911743c0,0.9860229-0.8000183,1.7770081-1.7850037,1.7770081 c-0.9779968,0-1.7770081-0.7909851-1.7770081-1.7770081c0-0.9849854,0.7990112-1.7769775,1.7770081-1.7769775 C43.4909668,27.6141968,44.2909851,28.406189,44.2909851,29.3911743"/></svg>