<svg xmlns="http://www.w3.org/2000/svg" xmlns:xlink="http://www.w3.org/1999/xlink" viewBox="0 0 68 68" width="150" height="150" xmlns:v="https://vecta.io/nano"><path fill="#febb50" d="M66 34.005C66 51.678 51.678 66 34.005 66 16.322 66 2 51.678 2 34.005S16.322 2 34.005 2C51.678 2 66 16.332 66 34.005"/><path d="M28.771 28.236a7.82 7.82 0 0 1-.139 1.484 8.65 8.65 0 0 1-8.524 7.167 8.61 8.61 0 0 1-4.07-1.02 8.64 8.64 0 0 1-4.581-7.631c0-4.789 3.874-8.663 8.651-8.663s8.663 3.874 8.663 8.663"/><g fill="#fff"><path d="M25.962 25.68c0 1.415-1.148 2.551-2.563 2.551a2.55 2.55 0 1 1 0-5.102c1.415 0 2.563 1.136 2.563 2.551"/><use xlink:href="#B"/></g><path d="M33.759 40.213a10.84 10.84 0 0 0-10.821 10.831c0 .763.619 1.382 1.383 1.382a1.38 1.38 0 0 0 1.382-1.382c0-4.448 3.614-8.066 8.056-8.066a8.08 8.08 0 0 1 8.066 8.066c0 .763.619 1.382 1.382 1.382s1.383-.619 1.383-1.382c0-5.973-4.859-10.831-10.831-10.831m22.783-11.977a7.82 7.82 0 0 1-.139 1.484 8.65 8.65 0 0 1-8.524 7.167c-1.472 0-2.853-.371-4.07-1.02a8.64 8.64 0 0 1-4.581-7.631c0-4.789 3.874-8.663 8.651-8.663s8.663 3.874 8.663 8.663"/><g fill="#fff"><path d="M53.733 25.68c0 1.415-1.148 2.551-2.563 2.551a2.55 2.55 0 1 1 0-5.102c1.415 0 2.563 1.136 2.563 2.551"/><use xlink:href="#B" x="27.771"/></g><defs ><path id="B" d="M16.52 29.391a1.78 1.78 0 0 1-1.785 1.777c-.978 0-1.777-.791-1.777-1.777s.799-1.777 1.777-1.777a1.78 1.78 0 0 1 1.785 1.777"/></defs></svg>