<svg viewBox="0 0 24 24" focusable="false" class='h-3 w-3' aria-hidden="true">
  <path fill="currentColor"
        d="M12,.5A11.634,11.634,0,0,0,.262,12,11.634,11.634,0,0,0,12,23.5a11.836,11.836,0,0,0,6.624-2,1.25,1.25,0,1,0-1.393-2.076A9.34,9.34,0,0,1,12,21a9.132,9.132,0,0,1-9.238-9A9.132,9.132,0,0,1,12,3a9.132,9.132,0,0,1,9.238,9v.891a1.943,1.943,0,0,1-3.884,0V12A5.355,5.355,0,1,0,12,17.261a5.376,5.376,0,0,0,3.861-1.634,4.438,4.438,0,0,0,7.877-2.736V12A11.634,11.634,0,0,0,12,.5Zm0,14.261A2.763,2.763,0,1,1,14.854,12,2.812,2.812,0,0,1,12,14.761Z"></path>
</svg>
