<svg xmlns="http://www.w3.org/2000/svg" x="0px" y="0px" width="100" height="100" viewBox="0,0,256,256">
<g fill="#efd32d" fill-rule="nonzero" stroke="none" stroke-width="1" stroke-linecap="butt" stroke-linejoin="miter" stroke-miterlimit="10" stroke-dasharray="" stroke-dashoffset="0" font-family="none" font-weight="none" font-size="none" text-anchor="none" style="mix-blend-mode: normal"><g transform="scale(10.66667,10.66667)"><path d="M16.256,3.005c-2.741,0.112 -4.256,2.085 -4.256,2.085c0,0 -1.515,-1.973 -4.256,-2.085c-1.838,-0.075 -3.523,0.84 -4.633,2.307c-3.862,5.104 3.45,11.075 5.17,12.678c1.029,0.959 2.299,2.098 3.057,2.773c0.379,0.338 0.944,0.338 1.323,0c0.758,-0.675 2.028,-1.814 3.057,-2.773c1.72,-1.603 9.033,-7.574 5.17,-12.678c-1.109,-1.467 -2.794,-2.382 -4.632,-2.307z"></path></g></g>
</svg>