<svg xmlns="http://www.w3.org/2000/svg" x="0px" y="0px" width="100" height="100" viewBox="0,0,256,256">
<g fill="#ffffff" fill-rule="nonzero" stroke="none" stroke-width="1" stroke-linecap="butt" stroke-linejoin="miter" stroke-miterlimit="10" stroke-dasharray="" stroke-dashoffset="0" font-family="none" font-weight="none" font-size="none" text-anchor="none" style="mix-blend-mode: normal"><g transform="scale(10.66667,10.66667)"><path d="M16.5,3c-2.895,0 -4.5,2.09 -4.5,2.09c0,0 -1.605,-2.09 -4.5,-2.09c-3.038,0 -5.5,2.462 -5.5,5.5c0,4.171 4.912,8.213 6.281,9.49c1.577,1.47 3.719,3.36 3.719,3.36c0,0 2.142,-1.89 3.719,-3.36c1.369,-1.277 6.281,-5.319 6.281,-9.49c0,-3.038 -2.462,-5.5 -5.5,-5.5zM14.811,16.11c-0.177,0.16 -0.331,0.299 -0.456,0.416c-0.751,0.7 -1.639,1.503 -2.355,2.145c-0.716,-0.642 -1.605,-1.446 -2.355,-2.145c-0.126,-0.117 -0.28,-0.257 -0.456,-0.416c-1.42,-1.283 -5.189,-4.691 -5.189,-7.61c0,-1.93 1.57,-3.5 3.5,-3.5c1.827,0 2.886,1.275 2.914,1.308l1.586,1.692l1.586,-1.692c0.01,-0.013 1.087,-1.308 2.914,-1.308c1.93,0 3.5,1.57 3.5,3.5c0,2.919 -3.769,6.327 -5.189,7.61z"></path></g></g>
</svg>