<svg xmlns="http://www.w3.org/2000/svg" id="KGX" viewBox="0 0 1080 1080" width="90" height="94">
    <defs>
        <style>
            .cls-1{fill:#fbe901;}.cls-2{fill:#861c99;}.cls-3{fill:#be2e99;}.cls-4{fill:#fe9102;}.cls-5{fill:#e3191f;}.cls-6{fill:#d01518;}.cls-7{fill:#13aa38;}.cls-8{fill:#c02e99;}.cls-9{fill:#851b97;}.cls-10{fill:#7dcf08;}.cls-11{fill:#7dd205;}.cls-12{fill:#15369d;}.cls-13{fill:#3b4bab;}.cls-14{fill:#404040;}</style>
    </defs>
    <title>KGX ILLUSTRATION BY AKASTHI [Recovered]</title>
    <polygon class="cls-1" points="582.1 534.44 484.42 534.44 533.26 594.62 582.1 534.44" />
    <polygon class="cls-2" points="629.49 593.43 531.66 593.43 580.58 654.79 629.49 593.43" />
    <polygon class="cls-3" points="580.58 654.96 678.4 654.31 629.09 593.27 580.58 654.96" />
    <polygon class="cls-4" points="629.09 593.27 582.1 534.44 531.66 593.43 629.09 593.27" />
    <polygon class="cls-4" points="531.66 593.27 484.68 534.44 434.24 593.43 531.66 593.27" />
    <polygon class="cls-5" points="531.87 593.43 434.04 593.43 482.95 654.79 531.87 593.43" />
    <polygon class="cls-6" points="482.95 654.85 434.12 593.43 381.7 655.02 482.95 654.85" />
    <polygon class="cls-7" points="484.75 534.44 582.43 534.29 533.5 474.19 484.75 534.44" />
    <polygon class="cls-8" points="437.27 475.52 535.09 475.37 486.08 414.08 437.27 475.52" />
    <polygon class="cls-9" points="486.08 413.92 388.26 414.72 437.67 475.68 486.08 413.92" />
    <polygon class="cls-10" points="437.67 475.68 484.75 534.44 535.09 475.37 437.67 475.68" />
    <polygon class="cls-11" points="535.09 475.53 582.17 534.29 632.51 475.22 535.09 475.53" />
    <polygon class="cls-12" points="534.89 475.37 632.72 475.22 583.71 413.93 534.89 475.37" />
    <polygon class="cls-13" points="583.71 413.88 632.64 475.22 684.96 413.55 583.71 413.88" />
    <polygon class="cls-14"
        points="259.87 528.86 365.69 653.9 265.2 653.9 186.94 553.89 173.1 535.8 259.87 528.86" />
    <polygon class="cls-14"
        points="804.13 528.86 700.08 653.9 798.79 653.9 859.29 579.22 811.24 528.86 804.13 528.86" />
    <polygon points="267.87 412.9 365.69 412.9 217.18 593.43 170.93 532.96 267.87 412.9" />
    <polygon points="700.08 412.9 798.79 412.9 897.51 534.74 843.26 597.88 700.08 412.9" />
</svg>