<?xml version="1.0"?><svg xmlns="http://www.w3.org/2000/svg"  viewBox="0 0 24 24" width="512px" height="512px">    <path fill="white" d="M 10.017578 2.2246094 C 9.9418633 2.2236094 9.8629062 2.2302969 9.7851562 2.2480469 C 8.6621563 2.5020469 7.6129688 2.948875 6.6679688 3.546875 C 6.1309688 3.886875 6.0607656 4.6467031 6.5097656 5.0957031 L 6.5117188 5.0976562 C 6.8337188 5.4196562 7.3386563 5.4959531 7.7226562 5.2519531 C 8.4896562 4.7639531 9.3448125 4.4032187 10.257812 4.1992188 C 10.700812 4.1002187 11 3.6854219 11 3.2324219 C 11 2.6741719 10.547582 2.2316094 10.017578 2.2246094 z M 13.984375 2.2246094 C 13.45418 2.2322793 13 2.6741719 13 3.2324219 L 13 3.234375 C 13 3.692375 13.308859 4.1001719 13.755859 4.2011719 C 17.324859 5.0031719 20 8.193 20 12 C 20 15.807 17.324859 18.996828 13.755859 19.798828 C 13.308859 19.899828 13 20.307625 13 20.765625 L 13 20.767578 C 13 21.405578 13.592844 21.893953 14.214844 21.751953 C 18.665844 20.741953 22 16.753 22 12 C 22 7.247 18.665844 3.2590469 14.214844 2.2480469 C 14.137094 2.2304219 14.060117 2.2235137 13.984375 2.2246094 z M 4.2792969 6.21875 C 3.9904219 6.247 3.716875 6.3994688 3.546875 6.6679688 C 2.948875 7.6129688 2.5030469 8.6621563 2.2480469 9.7851562 C 2.1070469 10.407156 2.5944219 11 3.2324219 11 C 3.6854219 11 4.1002187 10.699813 4.1992188 10.257812 C 4.4022188 9.3438125 4.7639531 8.4896562 5.2519531 7.7226562 C 5.4959531 7.3386562 5.4196562 6.8337187 5.0976562 6.5117188 L 5.0957031 6.5097656 C 4.8712031 6.2852656 4.5681719 6.1905 4.2792969 6.21875 z M 15.980469 8.9902344 A 1.0001 1.0001 0 0 0 15.292969 9.2929688 L 11 13.585938 L 9.7070312 12.292969 A 1.0001 1.0001 0 1 0 8.2929688 13.707031 L 10.292969 15.707031 A 1.0001 1.0001 0 0 0 11.707031 15.707031 L 16.707031 10.707031 A 1.0001 1.0001 0 0 0 15.980469 8.9902344 z M 3.2324219 13 C 2.5944219 13 2.1060469 13.592844 2.2480469 14.214844 C 2.5030469 15.337844 2.947875 16.387031 3.546875 17.332031 C 3.885875 17.869031 4.6467031 17.939234 5.0957031 17.490234 C 5.4187031 17.167234 5.4959531 16.661344 5.2519531 16.277344 C 4.7639531 15.510344 4.4032187 14.655187 4.1992188 13.742188 C 4.1002187 13.299188 3.6854219 13 3.2324219 13 z M 7.0957031 18.613281 C 6.8809531 18.642031 6.6727187 18.741344 6.5117188 18.902344 L 6.5097656 18.904297 C 6.0607656 19.353297 6.1309688 20.113125 6.6679688 20.453125 C 7.6129688 21.051125 8.6621563 21.496953 9.7851562 21.751953 C 10.407156 21.892953 11 21.405578 11 20.767578 C 11 20.314578 10.699813 19.899781 10.257812 19.800781 C 9.3448125 19.596781 8.4906094 19.236047 7.7246094 18.748047 C 7.5326094 18.626047 7.3104531 18.584531 7.0957031 18.613281 z"/></svg>