<svg width="24" height="24" viewBox="0 0 24 24" fill="none" xmlns="http://www.w3.org/2000/svg">
  <path d="M10.3193 4.93528C11.5957 4.63203 12.9306 4.68137 14.1811 5.07803C15.4317 5.47469 16.551 6.20375 17.4193 7.18728C17.639 7.43552 17.9483 7.58631 18.2793 7.60647C18.6102 7.62663 18.9355 7.51451 19.1838 7.29478C19.432 7.07505 19.5828 6.7657 19.603 6.43479C19.6231 6.10389 19.511 5.77852 19.2913 5.53028C18.1237 4.20738 16.6187 3.22659 14.9369 2.69273C13.2552 2.15887 11.46 2.092 9.74327 2.49928C8.00102 2.9367 6.404 3.82349 5.11164 5.07111C3.81927 6.31873 2.87678 7.88352 2.37827 9.60928C2.36179 9.66642 2.32541 9.71578 2.27571 9.74843C2.226 9.78108 2.16625 9.79486 2.10727 9.78728L1.07427 9.65728C0.982658 9.64551 0.889587 9.65981 0.805742 9.69855C0.721897 9.73729 0.650678 9.79889 0.600266 9.87628C0.548506 9.95352 0.519307 10.0437 0.515951 10.1366C0.512595 10.2295 0.535213 10.3215 0.581266 10.4023L3.05727 14.7443C3.09587 14.8118 3.14969 14.8693 3.21444 14.9124C3.27919 14.9554 3.35309 14.9828 3.43027 14.9923C3.45091 14.9938 3.47163 14.9938 3.49227 14.9923C3.55924 14.9923 3.62552 14.9788 3.68719 14.9527C3.74886 14.9266 3.80466 14.8884 3.85127 14.8403L7.32827 11.2473C7.39298 11.1803 7.43773 11.0967 7.45745 11.0057C7.47718 10.9147 7.47111 10.82 7.43993 10.7323C7.40875 10.6445 7.35369 10.5673 7.28096 10.5091C7.20823 10.451 7.12071 10.4144 7.02827 10.4033L5.15027 10.1713C5.11341 10.1661 5.07817 10.1527 5.04714 10.1322C5.01611 10.1116 4.99006 10.0844 4.97089 10.0525C4.95173 10.0205 4.93993 9.98475 4.93636 9.9477C4.93279 9.91065 4.93754 9.87326 4.95027 9.83828C5.37211 8.64203 6.08295 7.56852 7.01961 6.71315C7.95627 5.85779 9.08973 5.24707 10.3193 4.93528Z" fill="white"/>
  <path d="M23.4056 14.1003C23.4568 14.0226 23.4853 13.9323 23.4879 13.8394C23.4905 13.7465 23.4672 13.6547 23.4206 13.5743L20.9206 9.24526C20.8815 9.17807 20.8272 9.12095 20.7621 9.07841C20.697 9.03588 20.6229 9.00912 20.5456 9.00026C20.4685 8.99013 20.3901 8.99854 20.3168 9.02481C20.2436 9.05107 20.1777 9.09442 20.1246 9.15126L16.6686 12.7653C16.6045 12.8323 16.5602 12.9158 16.5408 13.0065C16.5214 13.0972 16.5277 13.1915 16.5588 13.2788C16.5899 13.3662 16.6447 13.4432 16.7171 13.5012C16.7895 13.5592 16.8766 13.5959 16.9686 13.6073L18.8166 13.8283C18.854 13.8327 18.8898 13.8455 18.9215 13.8658C18.9532 13.886 18.9799 13.9132 18.9996 13.9453C19.0192 13.9773 19.0315 14.0133 19.0355 14.0507C19.0394 14.088 19.0351 14.1258 19.0226 14.1613C18.6013 15.3575 17.8906 16.4309 16.9538 17.2859C16.017 18.1408 14.8833 18.7507 13.6536 19.0613C12.3771 19.3639 11.0423 19.3142 9.79178 18.9174C8.54129 18.5206 7.42206 17.7916 6.55361 16.8083C6.44613 16.681 6.31431 16.5765 6.16589 16.5009C6.01746 16.4253 5.85543 16.3802 5.68931 16.3681C5.52318 16.356 5.35632 16.3773 5.19852 16.4306C5.04072 16.4839 4.89517 16.5682 4.77042 16.6786C4.64566 16.7889 4.54422 16.9231 4.47205 17.0732C4.39989 17.2233 4.35845 17.3864 4.35018 17.5527C4.3419 17.7191 4.36696 17.8854 4.42388 18.0419C4.48079 18.1985 4.56842 18.3421 4.68161 18.4643C5.84954 19.7869 7.35483 20.7674 9.03668 21.3011C10.7185 21.8347 12.5138 21.9015 14.2306 21.4943C15.9751 21.0573 17.5742 20.1696 18.8675 18.9199C20.1608 17.6703 21.103 16.1027 21.5996 14.3743C21.6162 14.3173 21.6524 14.2681 21.7019 14.2354C21.7513 14.2026 21.8107 14.1884 21.8696 14.1953L22.9276 14.3223C22.9476 14.3237 22.9676 14.3237 22.9876 14.3223C23.0702 14.3227 23.1516 14.3026 23.2245 14.2638C23.2975 14.2251 23.3597 14.1689 23.4056 14.1003Z" fill="white"/>
</svg>
