<svg width="26" height="19" viewBox="0 0 26 19" fill="none" xmlns="http://www.w3.org/2000/svg" class="h-4 mr-2">
    <path d="M12.48 0.639663C8.49598 0.639663 5.86381 2.42203 4.27883 4.19333C2.69385 5.96464 2.10641 7.75716 2.10641 7.75716C2.08193 7.82275 2.07095 7.8926 2.07413 7.96254C2.0773 8.03247 2.09456 8.10104 2.12487 8.16415C2.15518 8.22725 2.19792 8.28358 2.25053 8.32977C2.30314 8.37596 2.36453 8.41105 2.43102 8.43294C2.49751 8.45483 2.56774 8.46307 2.6375 8.45717C2.70726 8.45126 2.7751 8.43134 2.83697 8.39858C2.89884 8.36583 2.95346 8.32092 2.99756 8.26655C3.04165 8.21218 3.07432 8.14946 3.09359 8.08216C3.09359 8.08216 3.61428 6.49468 5.05375 4.88599C6.49322 3.2773 8.80182 1.67966 12.48 1.67966C15.7445 1.67966 18.1902 2.90378 19.9042 4.29185C21.3143 5.43384 22.1991 6.69232 22.5926 7.39966H19.76C19.6911 7.39869 19.6227 7.41142 19.5587 7.43711C19.4948 7.46281 19.4366 7.50096 19.3875 7.54934C19.3385 7.59772 19.2995 7.65538 19.2729 7.71895C19.2463 7.78252 19.2326 7.85075 19.2326 7.91966C19.2326 7.98858 19.2463 8.0568 19.2729 8.12038C19.2995 8.18395 19.3385 8.2416 19.3875 8.28999C19.4366 8.33837 19.4948 8.37652 19.5587 8.40221C19.6227 8.42791 19.6911 8.44064 19.76 8.43966H24.44V3.75966C24.441 3.69009 24.4279 3.62104 24.4017 3.55659C24.3755 3.49214 24.3366 3.43361 24.2874 3.38446C24.2381 3.3353 24.1795 3.29653 24.115 3.27044C24.0505 3.24435 23.9814 3.23147 23.9119 3.23255C23.7741 3.23471 23.6429 3.29142 23.5469 3.39024C23.451 3.48906 23.3981 3.62192 23.4 3.75966V6.68466C22.889 5.8157 21.9615 4.62003 20.5593 3.48443C18.7062 1.98372 16.0245 0.65003 12.5166 0.640678C12.5044 0.639911 12.4922 0.639572 12.48 0.639663ZM0 11.5597V18.8397H7.28V11.5597H0ZM9.36 11.5597V12.0797V18.8397H16.64V11.5597H9.36ZM18.72 11.5597V18.8397H26V11.5597H18.72ZM10.4 12.5997H15.6V17.7997H10.4V12.5997Z" fill="currentColor"></path>
</svg>