<svg xmlns="http://www.w3.org/2000/svg" viewBox="0 0 93 93" fill="none" xmlns:v="https://vecta.io/nano"><path fill-rule="evenodd" d="M46.5 93C72.181 93 93 72.181 93 46.5S72.181 0 46.5 0 0 20.819 0 46.5 20.819 93 46.5 93zm0-16C63.345 77 77 63.345 77 46.5S63.345 16 46.5 16 16 29.655 16 46.5 29.655 77 46.5 77z" fill="#000"/><path d="M84.975 49.567c4.351.347 8.23-2.919 7.835-7.266-.451-4.976-1.703-9.864-3.723-14.471A46.5 46.5 0 0 0 54.469.688 46.5 46.5 0 0 0 39.527.526c-4.316.655-6.561 5.2-5.186 9.343h0c1.375 4.143 5.871 6.274 10.227 5.999a30.69 30.69 0 0 1 7.192.393c4.992.868 9.691 2.959 13.678 6.085s7.138 7.191 9.173 11.831a30.69 30.69 0 0 1 2.098 6.89c.773 4.296 3.915 8.153 8.266 8.5h0z" fill="currentfill"/></svg>