<svg width="215" height="25" viewBox="0 0 215 25" fill="none" xmlns="http://www.w3.org/2000/svg">
<path d="M5.10072 24.17H0L7.77202 1.30701H13.9061L21.667 24.17H16.5664L10.927 6.53201H10.7511L5.10072 24.17ZM4.78192 15.183H16.8301V18.957H4.78192V15.183ZM29.1367 1.30701V24.17H24.3768V1.30701H29.1367ZM60.082 9.31201H55.2669C55.1791 8.67901 54.9996 8.11701 54.7283 7.62601C54.4572 7.12701 54.109 6.70201 53.6839 6.35301C53.2589 6.00301 52.768 5.73401 52.211 5.54901C51.6613 5.36201 51.0641 5.27 50.419 5.27C49.2539 5.27 48.2387 5.56301 47.3741 6.15201C46.5093 6.73201 45.8387 7.58101 45.3623 8.69701C44.886 9.80501 44.6478 11.153 44.6478 12.738C44.6478 14.367 44.886 15.737 45.3623 16.847C45.846 17.955 46.5203 18.792 47.3851 19.358C48.2498 19.924 49.2502 20.207 50.3861 20.207C51.0236 20.207 51.6137 20.12 52.156 19.949C52.7057 19.779 53.1931 19.529 53.6181 19.203C54.043 18.867 54.3949 18.462 54.6734 17.985C54.9591 17.509 55.157 16.965 55.2669 16.356L60.082 16.377C59.9574 17.427 59.6459 18.438 59.1475 19.415C58.6564 20.382 57.9932 21.248 57.1578 22.014C56.3297 22.775 55.3403 23.378 54.1897 23.824C53.0464 24.262 51.7528 24.482 50.3091 24.482C48.301 24.482 46.5056 24.021 44.9226 23.099C43.3469 22.176 42.1011 20.84 41.185 19.091C40.2762 17.342 39.822 15.224 39.822 12.738C39.822 10.245 40.2836 8.12301 41.2071 6.37401C42.1305 4.62601 43.3837 3.29301 44.9667 2.37801C46.5495 1.45401 48.3304 0.99501 50.3091 0.99501C51.6137 0.99501 52.823 1.17901 53.9368 1.55301C55.0582 1.92401 56.0511 2.468 56.9159 3.181C57.7808 3.889 58.4842 4.755 59.0266 5.783C59.5762 6.811 59.928 7.98601 60.082 9.31201ZM71.0364 24.504C69.3288 24.504 67.8521 24.137 66.6062 23.4C65.3677 22.655 64.4112 21.622 63.7371 20.295C63.0628 18.963 62.7256 17.419 62.7256 15.662C62.7256 13.892 63.0628 12.344 63.7371 11.019C64.4112 9.68701 65.3677 8.65201 66.6062 7.91501C67.8521 7.17001 69.3288 6.79901 71.0364 6.79901C72.744 6.79901 74.2169 7.17001 75.4555 7.91501C76.7013 8.65201 77.6614 9.68701 78.3356 11.019C79.0099 12.344 79.3469 13.892 79.3469 15.662C79.3469 17.419 79.0099 18.963 78.3356 20.295C77.6614 21.622 76.7013 22.655 75.4555 23.4C74.2169 24.137 72.744 24.504 71.0364 24.504ZM71.0584 20.82C71.8352 20.82 72.4838 20.598 73.004 20.152C73.5245 19.696 73.9164 19.079 74.1803 18.297C74.4514 17.517 74.587 16.627 74.587 15.629C74.587 14.633 74.4514 13.743 74.1803 12.96C73.9164 12.18 73.5245 11.562 73.004 11.108C72.4838 10.654 71.8352 10.428 71.0584 10.428C70.2743 10.428 69.6145 10.654 69.0796 11.108C68.552 11.562 68.1526 12.18 67.8814 12.96C67.6175 13.743 67.4857 14.633 67.4857 15.629C67.4857 16.627 67.6175 17.517 67.8814 18.297C68.1526 19.079 68.552 19.696 69.0796 20.152C69.6145 20.598 70.2743 20.82 71.0584 20.82ZM82.392 24.17V7.02301H87.0751V24.17H82.392ZM84.7445 4.81201C84.0484 4.81201 83.4511 4.57701 82.9527 4.10901C82.4617 3.63101 82.2162 3.064 82.2162 2.399C82.2162 1.745 82.4617 1.183 82.9527 0.714005C83.4511 0.238005 84.0484 0 84.7445 0C85.4408 0 86.0344 0.238005 86.5255 0.714005C87.0237 1.183 87.2729 1.745 87.2729 2.399C87.2729 3.064 87.0237 3.63101 86.5255 4.10901C86.0344 4.57701 85.4408 4.81201 84.7445 4.81201ZM90.8264 24.17V7.02301H95.2891V10.047H95.4871C95.8391 9.04301 96.4251 8.25101 97.2461 7.66901C98.0671 7.09001 99.0491 6.79901 100.192 6.79901C101.35 6.79901 102.336 7.093 103.149 7.681C103.963 8.261 104.505 9.05001 104.776 10.047H104.952C105.297 9.06401 105.92 8.28001 106.821 7.69301C107.73 7.09701 108.804 6.79901 110.042 6.79901C111.618 6.79901 112.896 7.31001 113.879 8.32901C114.868 9.34101 115.363 10.778 115.363 12.638V24.17H110.69V13.576C110.69 12.623 110.441 11.907 109.943 11.432C109.445 10.956 108.822 10.717 108.074 10.717C107.224 10.717 106.561 10.994 106.084 11.544C105.608 12.086 105.37 12.805 105.37 13.697V24.17H100.83V13.475C100.83 12.634 100.592 11.964 100.115 11.465C99.6461 10.966 99.0271 10.717 98.2581 10.717C97.7371 10.717 97.2681 10.852 96.8501 11.119C96.4401 11.381 96.1141 11.748 95.8721 12.224C95.6301 12.693 95.5091 13.243 95.5091 13.876V24.17H90.8264ZM119.15 24.17V1.30701H123.833V9.903H123.975C124.181 9.441 124.478 8.972 124.866 8.496C125.262 8.013 125.775 7.61001 126.405 7.29001C127.042 6.96201 127.834 6.79901 128.779 6.79901C130.011 6.79901 131.146 7.12701 132.187 7.78101C133.228 8.43001 134.06 9.40801 134.683 10.717C135.306 12.019 135.617 13.654 135.617 15.619C135.617 17.531 135.313 19.146 134.705 20.464C134.104 21.773 133.283 22.767 132.242 23.445C131.209 24.115 130.051 24.449 128.768 24.449C127.86 24.449 127.087 24.296 126.449 23.991C125.819 23.687 125.302 23.303 124.899 22.842C124.496 22.372 124.188 21.901 123.975 21.423H123.767V24.17H119.15ZM123.734 15.595C123.734 16.615 123.873 17.505 124.151 18.264C124.43 19.024 124.833 19.615 125.361 20.04C125.888 20.456 126.53 20.665 127.284 20.665C128.047 20.665 128.691 20.452 129.219 20.028C129.747 19.596 130.146 19 130.417 18.242C130.696 17.476 130.835 16.593 130.835 15.595C130.835 14.607 130.7 13.735 130.428 12.984C130.157 12.232 129.758 11.644 129.23 11.22C128.702 10.795 128.054 10.583 127.284 10.583C126.522 10.583 125.877 10.787 125.35 11.198C124.829 11.607 124.43 12.188 124.151 12.939C123.873 13.691 123.734 14.576 123.734 15.595ZM143.557 24.494C142.479 24.494 141.519 24.304 140.676 23.924C139.834 23.537 139.167 22.967 138.676 22.217C138.192 21.456 137.95 20.511 137.95 19.38C137.95 18.429 138.122 17.627 138.467 16.981C138.811 16.332 139.28 15.811 139.874 15.417C140.468 15.024 141.142 14.725 141.897 14.525C142.659 14.324 143.458 14.183 144.293 14.1C145.275 13.996 146.067 13.9 146.668 13.809C147.269 13.713 147.705 13.572 147.976 13.385C148.247 13.2 148.383 12.925 148.383 12.56V12.493C148.383 11.786 148.163 11.239 147.723 10.852C147.291 10.465 146.675 10.271 145.876 10.271C145.033 10.271 144.363 10.461 143.864 10.84C143.366 11.212 143.036 11.681 142.875 12.247L138.544 11.89C138.764 10.848 139.196 9.946 139.841 9.188C140.486 8.422 141.318 7.83401 142.337 7.42401C143.363 7.00701 144.55 6.79901 145.898 6.79901C146.836 6.79901 147.734 6.91101 148.591 7.13501C149.456 7.35701 150.222 7.70301 150.889 8.17201C151.563 8.64201 152.094 9.24301 152.483 9.98001C152.871 10.711 153.066 11.585 153.066 12.605V24.17H148.624V21.792H148.493C148.221 22.327 147.859 22.8 147.404 23.209C146.95 23.612 146.404 23.928 145.766 24.158C145.129 24.382 144.392 24.494 143.557 24.494ZM144.898 21.211C145.587 21.211 146.195 21.073 146.723 20.798C147.25 20.515 147.664 20.136 147.965 19.661C148.265 19.183 148.416 18.643 148.416 18.042V16.222C148.269 16.318 148.067 16.407 147.811 16.489C147.562 16.564 147.28 16.635 146.964 16.702C146.649 16.761 146.334 16.817 146.019 16.869C145.704 16.914 145.418 16.955 145.162 16.992C144.612 17.073 144.132 17.205 143.722 17.381C143.311 17.56 142.992 17.802 142.765 18.108C142.538 18.405 142.424 18.778 142.424 19.224C142.424 19.871 142.655 20.366 143.117 20.71C143.586 21.044 144.18 21.211 144.898 21.211ZM165.68 7.02301V10.595H155.511V7.02301H165.68ZM157.82 2.914H162.503V18.9C162.503 19.34 162.569 19.682 162.701 19.928C162.833 20.166 163.016 20.333 163.25 20.431C163.492 20.527 163.771 20.574 164.086 20.574C164.306 20.574 164.526 20.557 164.745 20.519C164.965 20.474 165.134 20.441 165.251 20.419L165.988 23.958C165.753 24.032 165.423 24.117 164.998 24.215C164.573 24.319 164.057 24.382 163.448 24.404C162.32 24.449 161.33 24.296 160.48 23.946C159.637 23.596 158.982 23.054 158.513 22.317C158.043 21.58 157.813 20.649 157.82 19.525V2.914ZM176.178 24.504C174.471 24.504 172.994 24.137 171.748 23.4C170.509 22.655 169.553 21.622 168.879 20.295C168.205 18.963 167.868 17.419 167.868 15.662C167.868 13.892 168.205 12.344 168.879 11.019C169.553 9.68701 170.509 8.65201 171.748 7.91501C172.994 7.17001 174.471 6.79901 176.178 6.79901C177.886 6.79901 179.359 7.17001 180.597 7.91501C181.843 8.65201 182.803 9.68701 183.478 11.019C184.152 12.344 184.489 13.892 184.489 15.662C184.489 17.419 184.152 18.963 183.478 20.295C182.803 21.622 181.843 22.655 180.597 23.4C179.359 24.137 177.886 24.504 176.178 24.504ZM176.2 20.82C176.977 20.82 177.626 20.598 178.146 20.152C178.666 19.696 179.058 19.079 179.322 18.297C179.593 17.517 179.729 16.627 179.729 15.629C179.729 14.633 179.593 13.743 179.322 12.96C179.058 12.18 178.666 11.562 178.146 11.108C177.626 10.654 176.977 10.428 176.2 10.428C175.416 10.428 174.756 10.654 174.222 11.108C173.694 11.562 173.294 12.18 173.023 12.96C172.759 13.743 172.627 14.633 172.627 15.629C172.627 16.627 172.759 17.517 173.023 18.297C173.294 19.079 173.694 19.696 174.222 20.152C174.756 20.598 175.416 20.82 176.2 20.82ZM187.535 24.17V7.02301H192.074V10.013H192.25C192.557 8.95 193.074 8.14701 193.799 7.60201C194.525 7.052 195.361 6.77701 196.307 6.77701C196.541 6.77701 196.794 6.79101 197.065 6.82001C197.336 6.85201 197.574 6.891 197.779 6.944V11.165C197.559 11.098 197.255 11.037 196.868 10.986C196.479 10.933 196.123 10.907 195.8 10.907C195.111 10.907 194.496 11.061 193.954 11.365C193.418 11.662 192.994 12.08 192.679 12.615C192.371 13.151 192.217 13.768 192.217 14.468V24.17H187.535ZM207.11 24.504C205.373 24.504 203.877 24.148 202.624 23.433C201.378 22.712 200.418 21.692 199.745 20.374C199.07 19.05 198.733 17.484 198.733 15.674C198.733 13.91 199.07 12.363 199.745 11.029C200.418 9.69701 201.368 8.65901 202.591 7.91501C203.823 7.17001 205.267 6.79901 206.923 6.79901C208.037 6.79901 209.074 6.981 210.034 7.347C211.001 7.703 211.845 8.243 212.563 8.964C213.288 9.687 213.851 10.595 214.256 11.689C214.658 12.776 214.859 14.047 214.859 15.507V16.814H200.602V13.866H210.452C210.452 13.181 210.305 12.573 210.013 12.047C209.718 11.518 209.312 11.104 208.792 10.807C208.279 10.502 207.681 10.349 207 10.349C206.288 10.349 205.659 10.516 205.108 10.852C204.566 11.178 204.141 11.622 203.833 12.18C203.525 12.731 203.369 13.346 203.361 14.022V16.823C203.361 17.672 203.516 18.405 203.823 19.024C204.139 19.641 204.582 20.118 205.152 20.452C205.725 20.786 206.402 20.955 207.186 20.955C207.706 20.955 208.182 20.881 208.616 20.731C209.047 20.582 209.419 20.36 209.726 20.061C210.034 19.765 210.268 19.399 210.429 18.967L214.76 19.258C214.54 20.315 214.091 21.238 213.408 22.026C212.735 22.808 211.862 23.417 210.792 23.858C209.73 24.29 208.502 24.504 207.11 24.504Z" fill="white"/>
</svg>
