<svg width="231" height="246" viewBox="0 0 231 246" fill="none" xmlns="http://www.w3.org/2000/svg">
    <mask id="mask0_401_695" style="mask-type:luminance" maskUnits="userSpaceOnUse" x="33" y="31" width="166" height="170">
    <path d="M198.905 31.8623H33.2627V200.08H198.905V31.8623Z" fill="white"/>
    </mask>
    <g mask="url(#mask0_401_695)">
    <path d="M116.26 130.906C126.967 130.906 135.648 122.091 135.648 111.217C135.648 100.343 126.967 91.5273 116.26 91.5273C105.552 91.5273 96.8721 100.343 96.8721 111.217C96.8721 122.091 105.552 130.906 116.26 130.906Z" stroke="black" stroke-width="8.29182"/>
    <path d="M115.787 148.594C136.114 148.594 152.592 131.86 152.592 111.217C152.592 90.5742 136.114 73.8398 115.787 73.8398C95.4605 73.8398 78.9824 90.5742 78.9824 111.217C78.9824 131.86 95.4605 148.594 115.787 148.594Z" stroke="black" stroke-width="8.29182"/>
    <path d="M115.848 165.48C145.357 165.48 169.279 141.187 169.279 111.219C169.279 81.2515 145.357 56.958 115.848 56.958C86.3395 56.958 62.418 81.2515 62.418 111.219C62.418 141.187 86.3395 165.48 115.848 165.48Z" stroke="black" stroke-width="8.29182"/>
    <path d="M116.048 183.16C155.176 183.16 186.896 150.947 186.896 111.211C186.896 71.4743 155.176 39.2617 116.048 39.2617C76.9205 39.2617 45.2012 71.4743 45.2012 111.211C45.2012 150.947 76.9205 183.16 116.048 183.16Z" stroke="black" stroke-width="8.29182"/>
    <path d="M116.311 80.9252C119.733 80.9252 122.507 78.1081 122.507 74.633C122.507 71.1579 119.733 68.3408 116.311 68.3408C112.889 68.3408 110.115 71.1579 110.115 74.633C110.115 78.1081 112.889 80.9252 116.311 80.9252Z" fill="white" stroke="black" stroke-width="5.52788"/>
    <path d="M80.0729 121.828C83.4947 121.828 86.2688 119.01 86.2688 115.535C86.2688 112.06 83.4947 109.243 80.0729 109.243C76.6511 109.243 73.877 112.06 73.877 115.535C73.877 119.01 76.6511 121.828 80.0729 121.828Z" fill="white" stroke="black" stroke-width="5.52788"/>
    <path d="M87.199 163.392C91.3124 163.392 94.6469 160.006 94.6469 155.828C94.6469 151.651 91.3124 148.265 87.199 148.265C83.0855 148.265 79.751 151.651 79.751 155.828C79.751 160.006 83.0855 163.392 87.199 163.392Z" fill="white" stroke="black" stroke-width="6.90985"/>
    <path d="M116.047 191.919C120.415 191.919 123.955 188.322 123.955 183.886C123.955 179.451 120.415 175.855 116.047 175.855C111.679 175.855 108.139 179.451 108.139 183.886C108.139 188.322 111.679 191.919 116.047 191.919Z" fill="white" stroke="black" stroke-width="8.29182"/>
    <path d="M61.0558 75.4201C65.4235 75.4201 68.9641 71.8243 68.9641 67.3887C68.9641 62.9532 65.4235 59.3574 61.0558 59.3574C56.6881 59.3574 53.1475 62.9532 53.1475 67.3887C53.1475 71.8243 56.6881 75.4201 61.0558 75.4201Z" fill="white" stroke="black" stroke-width="8.29182"/>
    <path d="M169.517 71.2701C172.939 71.2701 175.713 68.4528 175.713 64.9777C175.713 61.5026 172.939 58.6855 169.517 58.6855C166.095 58.6855 163.321 61.5026 163.321 64.9777C163.321 68.4528 166.095 71.2701 169.517 71.2701Z" fill="white" stroke="black" stroke-width="5.52788"/>
    <path d="M166.355 103.9C170.469 103.9 173.803 100.514 173.803 96.3361C173.803 92.1588 170.469 88.7725 166.355 88.7725C162.242 88.7725 158.907 92.1588 158.907 96.3361C158.907 100.514 162.242 103.9 166.355 103.9Z" fill="white" stroke="black" stroke-width="6.90985"/>
    <path d="M192.932 31.8623H186.969V37.9182H192.932V31.8623Z" fill="black"/>
    <path d="M198.901 37.918H192.938V43.9738H198.901V37.918Z" fill="black"/>
    <path d="M192.932 43.9736H186.969V50.0295H192.932V43.9736Z" fill="black"/>
    <path d="M186.982 37.918H181.019V43.9738H186.982V37.918Z" fill="black"/>
    <path d="M192.932 181.911H186.969V187.967H192.932V181.911Z" fill="black"/>
    <path d="M198.901 187.967H192.938V194.023H198.901V187.967Z" fill="black"/>
    <path d="M192.932 194.023H186.969V200.079H192.932V194.023Z" fill="black"/>
    <path d="M186.982 187.967H181.019V194.023H186.982V187.967Z" fill="black"/>
    <path d="M47.1722 177.209H41.209V183.265H47.1722V177.209Z" fill="black"/>
    <path d="M55.1184 185.271H49.1553V191.326H55.1184V185.271Z" fill="black"/>
    <path d="M47.1722 194.023H41.209V200.079H47.1722V194.023Z" fill="black"/>
    <path d="M39.2258 185.271H33.2627V191.326H39.2258V185.271Z" fill="black"/>
    <path d="M49.1682 37.918H43.2051V43.9738H49.1682V37.918Z" fill="black"/>
    <path d="M41.3176 45.749H35.3545V51.8049H41.3176V45.749Z" fill="black"/>
    </g>
    <path d="M12.6056 243.902H7.50488L15.2769 221.039H21.411L29.1719 243.902H24.0713L18.4319 226.264H18.256L12.6056 243.902ZM12.2868 234.915H24.335V238.689H12.2868V234.915ZM36.6416 221.039V243.902H31.8817V221.039H36.6416ZM67.5869 229.044H62.7718C62.684 228.411 62.5045 227.849 62.2332 227.358C61.9621 226.859 61.6139 226.434 61.1888 226.085C60.7638 225.735 60.2729 225.466 59.7159 225.281C59.1662 225.094 58.569 225.002 57.9239 225.002C56.7588 225.002 55.7436 225.295 54.879 225.884C54.0142 226.464 53.3436 227.313 52.8672 228.429C52.3909 229.537 52.1527 230.885 52.1527 232.47C52.1527 234.099 52.3909 235.469 52.8672 236.579C53.3509 237.687 54.0252 238.524 54.89 239.09C55.7547 239.656 56.7551 239.939 57.891 239.939C58.5285 239.939 59.1186 239.852 59.6609 239.681C60.2106 239.511 60.698 239.261 61.123 238.935C61.5479 238.599 61.8998 238.194 62.1783 237.717C62.464 237.241 62.6619 236.697 62.7718 236.088L67.5869 236.109C67.4623 237.159 67.1508 238.17 66.6524 239.147C66.1613 240.114 65.4981 240.98 64.6627 241.746C63.8346 242.507 62.8452 243.11 61.6946 243.556C60.5513 243.994 59.2577 244.214 57.814 244.214C55.8059 244.214 54.0105 243.753 52.4275 242.831C50.8518 241.908 49.606 240.572 48.6899 238.823C47.7811 237.074 47.3269 234.956 47.3269 232.47C47.3269 229.977 47.7885 227.855 48.712 226.106C49.6354 224.358 50.8886 223.025 52.4716 222.11C54.0544 221.186 55.8353 220.727 57.814 220.727C59.1186 220.727 60.3279 220.911 61.4417 221.285C62.5631 221.656 63.556 222.2 64.4208 222.913C65.2857 223.621 65.9891 224.487 66.5315 225.515C67.0811 226.543 67.4329 227.718 67.5869 229.044ZM78.5413 244.236C76.8337 244.236 75.357 243.869 74.1111 243.132C72.8726 242.387 71.9161 241.354 71.242 240.027C70.5677 238.695 70.2305 237.151 70.2305 235.394C70.2305 233.624 70.5677 232.076 71.242 230.751C71.9161 229.419 72.8726 228.384 74.1111 227.647C75.357 226.902 76.8337 226.531 78.5413 226.531C80.2489 226.531 81.7218 226.902 82.9604 227.647C84.2062 228.384 85.1663 229.419 85.8405 230.751C86.5148 232.076 86.8518 233.624 86.8518 235.394C86.8518 237.151 86.5148 238.695 85.8405 240.027C85.1663 241.354 84.2062 242.387 82.9604 243.132C81.7218 243.869 80.2489 244.236 78.5413 244.236ZM78.5633 240.552C79.3401 240.552 79.9887 240.33 80.5089 239.884C81.0294 239.428 81.4213 238.811 81.6852 238.029C81.9563 237.249 82.0919 236.359 82.0919 235.361C82.0919 234.365 81.9563 233.475 81.6852 232.692C81.4213 231.912 81.0294 231.294 80.5089 230.84C79.9887 230.386 79.3401 230.16 78.5633 230.16C77.7792 230.16 77.1194 230.386 76.5845 230.84C76.0569 231.294 75.6575 231.912 75.3863 232.692C75.1224 233.475 74.9906 234.365 74.9906 235.361C74.9906 236.359 75.1224 237.249 75.3863 238.029C75.6575 238.811 76.0569 239.428 76.5845 239.884C77.1194 240.33 77.7792 240.552 78.5633 240.552ZM89.8969 243.902V226.755H94.58V243.902H89.8969ZM92.2494 224.544C91.5533 224.544 90.956 224.309 90.4576 223.841C89.9666 223.363 89.7211 222.796 89.7211 222.131C89.7211 221.477 89.9666 220.915 90.4576 220.446C90.956 219.97 91.5533 219.732 92.2494 219.732C92.9457 219.732 93.5393 219.97 94.0304 220.446C94.5286 220.915 94.7778 221.477 94.7778 222.131C94.7778 222.796 94.5286 223.363 94.0304 223.841C93.5393 224.309 92.9457 224.544 92.2494 224.544ZM98.3313 243.902V226.755H102.794V229.779H102.992C103.344 228.775 103.93 227.983 104.751 227.401C105.572 226.822 106.554 226.531 107.697 226.531C108.855 226.531 109.841 226.825 110.654 227.413C111.468 227.993 112.01 228.782 112.281 229.779H112.457C112.802 228.796 113.425 228.012 114.326 227.425C115.235 226.829 116.309 226.531 117.547 226.531C119.123 226.531 120.401 227.042 121.384 228.061C122.373 229.073 122.868 230.51 122.868 232.37V243.902H118.195V233.308C118.195 232.355 117.946 231.639 117.448 231.164C116.95 230.688 116.327 230.449 115.579 230.449C114.729 230.449 114.066 230.726 113.589 231.276C113.113 231.818 112.875 232.537 112.875 233.429V243.902H108.335V233.207C108.335 232.366 108.097 231.696 107.62 231.197C107.151 230.698 106.532 230.449 105.763 230.449C105.242 230.449 104.773 230.584 104.355 230.851C103.945 231.113 103.619 231.48 103.377 231.956C103.135 232.425 103.014 232.975 103.014 233.608V243.902H98.3313ZM126.655 243.902V221.039H131.338V229.635H131.48C131.686 229.173 131.983 228.704 132.371 228.228C132.767 227.745 133.28 227.342 133.91 227.022C134.547 226.694 135.339 226.531 136.284 226.531C137.516 226.531 138.651 226.859 139.692 227.513C140.733 228.162 141.565 229.14 142.188 230.449C142.811 231.751 143.122 233.386 143.122 235.351C143.122 237.263 142.818 238.878 142.21 240.196C141.609 241.505 140.788 242.499 139.747 243.177C138.714 243.847 137.556 244.181 136.273 244.181C135.365 244.181 134.592 244.028 133.954 243.723C133.324 243.419 132.807 243.035 132.404 242.574C132.001 242.104 131.693 241.633 131.48 241.155H131.272V243.902H126.655ZM131.239 235.327C131.239 236.347 131.378 237.237 131.656 237.996C131.935 238.756 132.338 239.347 132.866 239.772C133.393 240.188 134.035 240.397 134.789 240.397C135.552 240.397 136.196 240.184 136.724 239.76C137.252 239.328 137.651 238.732 137.922 237.974C138.201 237.208 138.34 236.325 138.34 235.327C138.34 234.339 138.205 233.467 137.933 232.716C137.662 231.964 137.263 231.376 136.735 230.952C136.207 230.527 135.559 230.315 134.789 230.315C134.027 230.315 133.382 230.519 132.855 230.93C132.334 231.339 131.935 231.92 131.656 232.671C131.378 233.423 131.239 234.308 131.239 235.327ZM151.062 244.226C149.984 244.226 149.024 244.036 148.181 243.656C147.339 243.269 146.672 242.699 146.181 241.949C145.697 241.188 145.455 240.243 145.455 239.112C145.455 238.161 145.627 237.359 145.972 236.713C146.316 236.064 146.785 235.543 147.379 235.149C147.973 234.756 148.647 234.457 149.402 234.257C150.164 234.056 150.963 233.915 151.798 233.832C152.78 233.728 153.572 233.632 154.173 233.541C154.774 233.445 155.21 233.304 155.481 233.117C155.752 232.932 155.888 232.657 155.888 232.292V232.225C155.888 231.518 155.668 230.971 155.228 230.584C154.796 230.197 154.18 230.003 153.381 230.003C152.538 230.003 151.868 230.193 151.369 230.572C150.871 230.944 150.541 231.413 150.38 231.979L146.049 231.622C146.269 230.58 146.701 229.678 147.346 228.92C147.991 228.154 148.823 227.566 149.842 227.156C150.868 226.739 152.055 226.531 153.403 226.531C154.341 226.531 155.239 226.643 156.096 226.867C156.961 227.089 157.727 227.435 158.394 227.904C159.068 228.374 159.599 228.975 159.988 229.712C160.376 230.443 160.571 231.317 160.571 232.337V243.902H156.129V241.524H155.998C155.726 242.059 155.364 242.532 154.909 242.941C154.455 243.344 153.909 243.66 153.271 243.89C152.634 244.114 151.897 244.226 151.062 244.226ZM152.403 240.943C153.092 240.943 153.7 240.805 154.228 240.53C154.755 240.247 155.169 239.868 155.47 239.393C155.77 238.915 155.921 238.375 155.921 237.774V235.954C155.774 236.05 155.572 236.139 155.316 236.221C155.067 236.296 154.785 236.367 154.469 236.434C154.154 236.493 153.839 236.549 153.524 236.601C153.209 236.646 152.923 236.687 152.667 236.724C152.117 236.805 151.637 236.937 151.227 237.113C150.816 237.292 150.497 237.534 150.27 237.84C150.043 238.137 149.929 238.51 149.929 238.956C149.929 239.603 150.16 240.098 150.622 240.442C151.091 240.776 151.685 240.943 152.403 240.943ZM173.185 226.755V230.327H163.016V226.755H173.185ZM165.325 222.646H170.008V238.632C170.008 239.072 170.074 239.414 170.206 239.66C170.338 239.898 170.521 240.065 170.755 240.163C170.997 240.259 171.276 240.306 171.591 240.306C171.811 240.306 172.031 240.289 172.25 240.251C172.47 240.206 172.639 240.173 172.756 240.151L173.493 243.69C173.258 243.764 172.928 243.849 172.503 243.947C172.078 244.051 171.562 244.114 170.953 244.136C169.825 244.181 168.835 244.028 167.985 243.678C167.142 243.328 166.487 242.786 166.018 242.049C165.548 241.312 165.318 240.381 165.325 239.257V222.646ZM183.683 244.236C181.976 244.236 180.499 243.869 179.253 243.132C178.014 242.387 177.058 241.354 176.384 240.027C175.71 238.695 175.373 237.151 175.373 235.394C175.373 233.624 175.71 232.076 176.384 230.751C177.058 229.419 178.014 228.384 179.253 227.647C180.499 226.902 181.976 226.531 183.683 226.531C185.391 226.531 186.864 226.902 188.102 227.647C189.348 228.384 190.308 229.419 190.983 230.751C191.657 232.076 191.994 233.624 191.994 235.394C191.994 237.151 191.657 238.695 190.983 240.027C190.308 241.354 189.348 242.387 188.102 243.132C186.864 243.869 185.391 244.236 183.683 244.236ZM183.705 240.552C184.482 240.552 185.131 240.33 185.651 239.884C186.171 239.428 186.563 238.811 186.827 238.029C187.098 237.249 187.234 236.359 187.234 235.361C187.234 234.365 187.098 233.475 186.827 232.692C186.563 231.912 186.171 231.294 185.651 230.84C185.131 230.386 184.482 230.16 183.705 230.16C182.921 230.16 182.261 230.386 181.727 230.84C181.199 231.294 180.799 231.912 180.528 232.692C180.264 233.475 180.132 234.365 180.132 235.361C180.132 236.359 180.264 237.249 180.528 238.029C180.799 238.811 181.199 239.428 181.727 239.884C182.261 240.33 182.921 240.552 183.705 240.552ZM195.04 243.902V226.755H199.579V229.745H199.755C200.062 228.682 200.579 227.879 201.304 227.334C202.03 226.784 202.866 226.509 203.812 226.509C204.046 226.509 204.299 226.523 204.57 226.552C204.841 226.584 205.079 226.623 205.284 226.676V230.897C205.064 230.83 204.76 230.769 204.373 230.718C203.984 230.665 203.628 230.639 203.305 230.639C202.616 230.639 202.001 230.793 201.459 231.097C200.923 231.394 200.499 231.812 200.184 232.347C199.876 232.883 199.722 233.5 199.722 234.2V243.902H195.04ZM214.615 244.236C212.878 244.236 211.382 243.88 210.129 243.165C208.883 242.444 207.923 241.424 207.25 240.106C206.575 238.782 206.238 237.216 206.238 235.406C206.238 233.642 206.575 232.095 207.25 230.761C207.923 229.429 208.873 228.391 210.096 227.647C211.328 226.902 212.772 226.531 214.428 226.531C215.542 226.531 216.579 226.713 217.539 227.079C218.506 227.435 219.35 227.975 220.068 228.696C220.793 229.419 221.356 230.327 221.761 231.421C222.163 232.508 222.364 233.779 222.364 235.239V236.546H208.107V233.598H217.957C217.957 232.913 217.81 232.305 217.518 231.779C217.223 231.25 216.817 230.836 216.297 230.539C215.784 230.234 215.186 230.081 214.505 230.081C213.793 230.081 213.164 230.248 212.613 230.584C212.071 230.91 211.646 231.354 211.338 231.912C211.03 232.463 210.874 233.078 210.866 233.754V236.555C210.866 237.404 211.021 238.137 211.328 238.756C211.644 239.373 212.087 239.85 212.657 240.184C213.23 240.518 213.907 240.687 214.691 240.687C215.211 240.687 215.687 240.613 216.121 240.463C216.552 240.314 216.924 240.092 217.231 239.793C217.539 239.497 217.773 239.131 217.934 238.699L222.265 238.99C222.045 240.047 221.596 240.97 220.913 241.758C220.24 242.54 219.367 243.149 218.297 243.59C217.235 244.022 216.007 244.236 214.615 244.236Z" fill="black"/>
    </svg>