<svg id="Layer_1" data-name="Layer 1" xmlns="http://www.w3.org/2000/svg" xmlns:xlink="http://www.w3.org/1999/xlink" viewBox="0 0 3473 1069"><defs><style>.cls-1{fill:#fff;}.cls-2{fill:#111;}.cls-3{fill-rule:evenodd;fill:url(#linear-gradient);}</style><linearGradient id="linear-gradient" x1="658.73" y1="777.7" x2="341.45" y2="352.06" gradientTransform="matrix(1, 0, 0, -1, 0, 1070)" gradientUnits="userSpaceOnUse"><stop offset="0" stop-color="#33a9ff"/><stop offset="1" stop-color="#1673ff"/></linearGradient></defs><rect class="cls-1" width="3473" height="1069"/><path class="cls-2" d="M1054.06,633.32q4.93.45,11.23.9H1081q52.55,0,77.7-26.5,25.59-26.49,25.59-73.18,0-48.94-24.25-74.09t-76.79-25.14q-7.18,0-14.82.45-5.78,0-11,.51a3.73,3.73,0,0,0-3.33,3.74Zm202.54-98.78Q1256.6,575,1244,605t-35.92,49.84q-22.9,19.75-56.14,29.63t-74.55,9.88q-18.86,0-44-1.79A338.32,338.32,0,0,1,984,686.3V386.41a3.8,3.8,0,0,1,3.13-3.75,386.34,386.34,0,0,1,47.17-5.27q26.49-1.8,45.36-1.8,40,0,72.3,9,32.79,9,56.14,28.29T1244,462.25Q1256.61,492.33,1256.6,534.54Z"/><path class="cls-2" d="M1397.52,534.54q0,22.89,5.39,41.31a103.13,103.13,0,0,0,16.17,31.87,74.66,74.66,0,0,0,26.05,20.21q15.27,7.19,35,7.18,19.3,0,34.58-7.18a69.47,69.47,0,0,0,26-20.21A91.41,91.41,0,0,0,1557,575.85q5.83-18.42,5.84-41.31T1557,493.23q-5.39-18.86-16.17-31.88a67.73,67.73,0,0,0-26-20.65q-15.27-7.18-34.58-7.19-19.77,0-35,7.64a72.5,72.5,0,0,0-26.05,20.65q-10.33,13-16.17,31.88A145.23,145.23,0,0,0,1397.52,534.54Zm237.57,0q0,40-12.12,70.49-11.68,30.09-32.34,50.74a134.89,134.89,0,0,1-49.4,30.53,176.88,176.88,0,0,1-61.07,10.33A174.23,174.23,0,0,1,1420,686.3a140,140,0,0,1-49.4-30.53q-21.11-20.65-33.23-50.74-12.13-30.53-12.13-70.49t12.58-70q12.57-30.53,33.68-51.18a142,142,0,0,1,49.4-31A171.39,171.39,0,0,1,1480.16,372a174.08,174.08,0,0,1,60.18,10.33,136.87,136.87,0,0,1,49.4,31q21.1,20.65,33.23,51.18Q1635.09,494.58,1635.09,534.54Z"/><path class="cls-2" d="M1810.48,375.59q69.62,0,106.88,24.7,37.28,24.24,37.28,79.92,0,56.13-37.72,81.27-37.73,24.69-107.79,24.69H1791a3.83,3.83,0,0,0-3.83,3.83v96.51a3.83,3.83,0,0,1-3.83,3.83h-66.23V386.83a3.81,3.81,0,0,1,3.1-3.75,400.76,400.76,0,0,1,45.4-5.69Q1791.18,375.59,1810.48,375.59Zm4.49,59.72q-7.63,0-15.27.45-5,.3-9.06.62a3.8,3.8,0,0,0-3.51,3.8v86.28h22q36.38,0,54.79-9.88t18.42-36.82q0-13-4.94-21.55a32.47,32.47,0,0,0-13.48-13.47q-8.54-5.39-21.1-7.19A159.75,159.75,0,0,0,1815,435.31Z"/><path class="cls-2" d="M2123.07,375.59q69.61,0,106.89,24.7,37.27,24.24,37.27,79.92,0,56.13-37.72,81.27-37.73,24.69-107.78,24.69h-18.18a3.83,3.83,0,0,0-3.83,3.83v96.51a3.83,3.83,0,0,1-3.83,3.83h-66.23V386.82a3.8,3.8,0,0,1,3.1-3.74,400.76,400.76,0,0,1,45.4-5.69Q2103.77,375.59,2123.07,375.59Zm4.49,59.72q-7.64,0-15.27.45-5,.3-9.06.62a3.81,3.81,0,0,0-3.51,3.8v86.28h22q36.38,0,54.78-9.88t18.42-36.82q0-13-4.94-21.55a32.47,32.47,0,0,0-13.48-13.47q-8.52-5.39-21.1-7.19A159.75,159.75,0,0,0,2127.56,435.31Z"/><path class="cls-2" d="M2540.5,630.17a1.29,1.29,0,0,1,1.28,1.28v57.62a1.28,1.28,0,0,1-1.28,1.27H2342.25V401.41a3.83,3.83,0,0,1,2.81-3.69l67.25-18.54v251Z"/><path class="cls-2" d="M2618.88,690.34V383a3.84,3.84,0,0,1,3.83-3.83h215a1.28,1.28,0,0,1,1.23,1.64l-16.44,56.26a1.26,1.26,0,0,1-1.22.92H2692.77a3.83,3.83,0,0,0-3.83,3.83v57.24H2803.1a1.27,1.27,0,0,1,1.23,1.63l-16,54.92a1.28,1.28,0,0,1-1.22.92h-94.34a3.82,3.82,0,0,0-3.83,3.83v71.15h154.72a1.28,1.28,0,0,1,1.23,1.63l-16.34,56.27a1.27,1.27,0,0,1-1.22.92Z"/><path class="cls-2" d="M3006,375.59q70.07,0,107.34,25.15,37.28,24.69,37.27,77.22,0,32.79-15.27,53.44-14.82,20.19-43.11,31.87,9.43,11.68,19.76,26.94,10.34,14.82,20.21,31.43,10.32,16.17,19.76,34.13,8.93,16.58,16.65,32.75a1.28,1.28,0,0,1-1.16,1.82H3091.6a1.27,1.27,0,0,1-1.11-.65q-8.37-15-17.15-30.33-8.53-15.72-18-30.53-9-14.82-18-27.84a286.92,286.92,0,0,0-18-24.25h-30.76a3.83,3.83,0,0,0-3.82,3.83V686.51a3.83,3.83,0,0,1-3.83,3.83h-66.23V386.82a3.8,3.8,0,0,1,3.09-3.74,400,400,0,0,1,44.06-5.69Q2986.67,375.59,3006,375.59Zm4.05,59.72q-7.64,0-13.93.45-4,.3-7.71.61a3.82,3.82,0,0,0-3.51,3.81v80.89h19.76q39.51,0,56.58-9.88t17.07-33.67q0-22.9-17.52-32.33Q3043.71,435.31,3010,435.31Z"/><path class="cls-3" d="M307.26,310a1.79,1.79,0,0,0-1.5,2.75l89.7,140.38a14.19,14.19,0,0,0,12,6.58H528.38c39.92,0,64.87,35.28,64.72,74.79s-26.74,74.44-64.72,74.44H404.77a4.71,4.71,0,0,0-4.71,4.75V754.25a4.72,4.72,0,0,0,4.72,4.75H560.62C689.12,759,753,637.1,753.09,534.5S690,310,560.62,310ZM367,609.29H336.16C318.4,609.29,304,626,304,646.71V757.66a1.28,1.28,0,0,0,1.28,1.28h30.88c17.76,0,32.15-16.75,32.15-37.41v-111A1.27,1.27,0,0,0,367,609.29Z"/></svg>