<svg width="527" height="83" viewBox="0 0 527 83" fill="none" xmlns="http://www.w3.org/2000/svg">
<path d="M135.783 59.3472C136.392 59.4025 137.083 59.4578 137.858 59.5132C138.688 59.5132 139.656 59.5132 140.763 59.5132C147.237 59.5132 152.023 57.8808 155.122 54.6162C158.276 51.3515 159.853 46.8418 159.853 41.0872C159.853 35.0558 158.359 30.4908 155.371 27.3921C152.383 24.2935 147.652 22.7441 141.178 22.7441C140.293 22.7441 139.38 22.7718 138.439 22.8271C138.068 22.8271 137.705 22.8358 137.351 22.853C136.45 22.8969 135.783 23.6663 135.783 24.5677V59.3472ZM173.216 41.0872C173.216 46.0672 172.441 50.4108 170.892 54.1182C169.343 57.8255 167.129 60.8965 164.252 63.3312C161.43 65.7658 157.972 67.5918 153.877 68.8092C149.782 70.0265 145.19 70.6352 140.099 70.6352C137.775 70.6352 135.064 70.5245 131.965 70.3032C129.364 70.1638 126.801 69.8684 124.278 69.4171C123.436 69.2666 122.835 68.527 122.835 67.6721V13.1161C125.823 12.5628 128.922 12.2031 132.131 12.0371C135.396 11.8158 138.19 11.7051 140.514 11.7051C145.439 11.7051 149.893 12.2585 153.877 13.3651C157.916 14.4718 161.375 16.2148 164.252 18.5941C167.129 20.9735 169.343 24.0168 170.892 27.7241C172.441 31.4315 173.216 35.8858 173.216 41.0872Z" fill="#111111"/>
<path d="M199.262 41.0872C199.262 43.9092 199.594 46.4545 200.258 48.7232C200.977 50.9918 201.973 52.9562 203.246 54.6162C204.574 56.2208 206.178 57.4658 208.06 58.3512C209.941 59.2365 212.099 59.6792 214.534 59.6792C216.913 59.6792 219.043 59.2365 220.925 58.3512C222.861 57.4658 224.466 56.2208 225.739 54.6162C227.067 52.9562 228.063 50.9918 228.727 48.7232C229.446 46.4545 229.806 43.9092 229.806 41.0872C229.806 38.2652 229.446 35.7198 228.727 33.4511C228.063 31.1271 227.067 29.1628 225.739 27.5581C224.466 25.8981 222.861 24.6255 220.925 23.7401C219.043 22.8548 216.913 22.4121 214.534 22.4121C212.099 22.4121 209.941 22.8825 208.06 23.8231C206.178 24.7085 204.574 25.9811 203.246 27.6411C201.973 29.2458 200.977 31.2101 200.258 33.5341C199.594 35.8028 199.262 38.3205 199.262 41.0872ZM243.169 41.0872C243.169 46.0118 242.422 50.3555 240.928 54.1182C239.489 57.8255 237.497 60.9518 234.952 63.4972C232.406 65.9872 229.363 67.8685 225.822 69.1412C222.336 70.4138 218.573 71.0502 214.534 71.0502C210.605 71.0502 206.898 70.4138 203.412 69.1412C199.926 67.8685 196.882 65.9872 194.282 63.4972C191.681 60.9518 189.634 57.8255 188.14 54.1182C186.646 50.3555 185.899 46.0118 185.899 41.0872C185.899 36.1625 186.673 31.8465 188.223 28.1391C189.772 24.3765 191.847 21.2225 194.448 18.6771C197.104 16.1318 200.147 14.2228 203.578 12.9501C207.064 11.6775 210.716 11.0411 214.534 11.0411C218.462 11.0411 222.17 11.6775 225.656 12.9501C229.142 14.2228 232.185 16.1318 234.786 18.6771C237.386 21.2225 239.434 24.3765 240.928 28.1391C242.422 31.8465 243.169 36.1625 243.169 41.0872Z" fill="#111111"/>
<path d="M275.584 11.7051C284.16 11.7051 290.745 13.2268 295.338 16.2701C299.93 19.2581 302.227 24.1828 302.227 31.0441C302.227 37.9608 299.903 42.9685 295.255 46.0672C290.607 49.1105 283.967 50.6322 275.335 50.6322H273.066C272.073 50.6322 271.268 51.4373 271.268 52.4306V69.8882H260.118C259.125 69.8882 258.32 69.083 258.32 68.0897V13.1991C261.141 12.6458 264.13 12.2585 267.284 12.0371C270.438 11.8158 273.204 11.7051 275.584 11.7051ZM276.414 22.7441C275.473 22.7441 274.532 22.7718 273.592 22.8271C273.359 22.8417 273.135 22.8562 272.918 22.8707C271.984 22.9331 271.268 23.7126 271.268 24.6479V39.5931H275.335C279.817 39.5931 283.192 38.9845 285.461 37.7671C287.729 36.5498 288.864 34.2811 288.864 30.9611C288.864 29.3565 288.559 28.0285 287.951 26.9771C287.397 25.9258 286.567 25.0958 285.461 24.4871C284.409 23.8231 283.109 23.3805 281.56 23.1591C280.01 22.8825 278.295 22.7441 276.414 22.7441Z" fill="#111111"/>
<path d="M333.356 11.7051C341.933 11.7051 348.517 13.2268 353.11 16.2701C357.703 19.2581 359.999 24.1828 359.999 31.0441C359.999 37.9608 357.675 42.9685 353.027 46.0672C348.379 49.1105 341.739 50.6322 333.107 50.6322H330.838C329.845 50.6322 329.04 51.4373 329.04 52.4306V69.8882H317.89C316.897 69.8882 316.092 69.083 316.092 68.0897V13.1991C318.914 12.6458 321.902 12.2585 325.056 12.0371C328.21 11.8158 330.977 11.7051 333.356 11.7051ZM334.186 22.7441C333.245 22.7441 332.305 22.7718 331.364 22.8271C331.132 22.8417 330.907 22.8562 330.69 22.8707C329.757 22.9331 329.04 23.7126 329.04 24.6479V39.5931H333.107C337.589 39.5931 340.964 38.9845 343.233 37.7671C345.502 36.5498 346.636 34.2811 346.636 30.9611C346.636 29.3565 346.332 28.0285 345.723 26.9771C345.17 25.9258 344.34 25.0958 343.233 24.4871C342.182 23.8231 340.881 23.3805 339.332 23.1591C337.783 22.8825 336.067 22.7441 334.186 22.7441Z" fill="#111111"/>
<path d="M410.14 58.7662C410.472 58.7662 410.74 59.0345 410.74 59.3656V69.2887C410.74 69.6198 410.472 69.8882 410.14 69.8882H375.663C374.67 69.8882 373.865 69.083 373.865 68.0897V17.3101C373.865 16.5002 374.405 15.7901 375.186 15.5748L386.813 12.3691V58.7662H410.14Z" fill="#111111"/>
<path d="M426.789 69.8882C425.796 69.8882 424.991 69.083 424.991 68.0897V12.3691H464.944C465.344 12.3691 465.632 12.753 465.52 13.1367L462.694 22.8107C462.62 23.0664 462.385 23.2421 462.119 23.2421H439.737C438.744 23.2421 437.939 24.0473 437.939 25.0406V34.5301H458.554C458.953 34.5301 459.241 34.9136 459.129 35.2972L456.384 44.7223C456.31 44.9782 456.075 45.1542 455.809 45.1542H439.737C438.744 45.1542 437.939 45.9593 437.939 46.9526V59.0152H466.05C466.449 59.0152 466.737 59.3983 466.626 59.7818L463.817 69.4558C463.743 69.7119 463.508 69.8882 463.242 69.8882H426.789Z" fill="#111111"/>
<path d="M496.532 11.7051C505.164 11.7051 511.776 13.2545 516.369 16.3531C520.962 19.3965 523.258 24.1551 523.258 30.6291C523.258 34.6685 522.317 37.9608 520.436 40.5061C518.61 42.9961 515.954 44.9605 512.468 46.3992C513.63 47.8378 514.847 49.4978 516.12 51.3792C517.393 53.2052 518.638 55.1418 519.855 57.1892C521.128 59.1812 522.345 61.2838 523.507 63.4972C524.512 65.3633 525.455 67.2088 526.335 69.0336C526.527 69.4299 526.237 69.8882 525.797 69.8882H512.571C512.354 69.8882 512.154 69.7707 512.047 69.5812C511.05 67.7993 510.029 65.9926 508.982 64.1612C507.931 62.2245 506.824 60.3432 505.662 58.5172C504.555 56.6912 503.449 54.9758 502.342 53.3712C501.235 51.7112 500.129 50.2172 499.022 48.8892H494.43C493.436 48.8892 492.631 49.6943 492.631 50.6876V69.8882H481.482C480.488 69.8882 479.683 69.083 479.683 68.0897V13.1991C482.505 12.6458 485.41 12.2585 488.398 12.0371C491.441 11.8158 494.153 11.7051 496.532 11.7051ZM497.279 22.7441C496.338 22.7441 495.481 22.7718 494.706 22.8271C494.563 22.8381 494.421 22.8491 494.281 22.8601C493.348 22.933 492.631 23.7126 492.631 24.6479V38.5972H496.283C501.152 38.5972 504.638 37.9885 506.741 36.7711C508.844 35.5538 509.895 33.4788 509.895 30.5461C509.895 27.7241 508.816 25.7321 506.658 24.5701C504.555 23.3528 501.429 22.7441 497.279 22.7441Z" fill="#111111"/>
<path fill-rule="evenodd" clip-rule="evenodd" d="M1.52378 0C0.860841 0 0.468192 0.732463 0.825109 1.29112L15.7055 24.5822C16.936 26.5083 19.0574 27.6739 21.343 27.6739H41.4698C48.8467 27.6739 53.4585 34.1966 53.4315 41.5C53.4045 48.8034 48.49 55.2611 41.4698 55.2611H19.982C18.7491 55.2611 17.7542 56.2606 17.7542 57.4936V80.7699C17.7542 82.0016 18.747 83 19.9786 83H47.4274C71.1783 83 82.9858 60.4663 83.0002 41.5C83.0146 22.5337 71.3453 0 47.4274 0H1.52378ZM11.2867 55.3259H5.94311C2.66082 55.3259 0 58.4222 0 62.2417V73.2033V82.3895C0 82.7206 0.268396 82.989 0.599478 82.989H5.94311C9.22539 82.989 11.8862 79.8927 11.8862 76.0732V55.9254C11.8862 55.5943 11.6178 55.3259 11.2867 55.3259Z" fill="url(#paint0_linear)"/>
<defs>
<linearGradient id="paint0_linear" x1="66.2481" y1="-2.76031" x2="7.59388" y2="75.9105" gradientUnits="userSpaceOnUse">
<stop offset="0.0364583" stop-color="#409FF8"/>
<stop offset="0.5" stop-color="#1673FF"/>
<stop offset="1" stop-color="#516FF7"/>
</linearGradient>
</defs>
</svg>
