<?xml version="1.0" encoding="utf-8"?>
<!-- Generator: Adobe Illustrator 25.2.1, SVG Export Plug-In . SVG Version: 6.00 Build 0)  -->
<svg version="1.1" id="Layer_1" xmlns="http://www.w3.org/2000/svg" xmlns:xlink="http://www.w3.org/1999/xlink" x="0px" y="0px"
	 viewBox="0 0 646.6 105.7" style="enable-background:new 0 0 646.6 105.7;" xml:space="preserve">
<style type="text/css">
	.st0{fill:#104366;}
	.st1{fill:#4086C6;}
</style>
<g>
	<path class="st0" d="M21.1,79.8c-6.6-3.5-11.7-8.4-15.5-14.6C1.9,59,0,52,0,44.3c0-7.8,1.9-14.7,5.6-20.9
		c3.7-6.2,8.9-11.1,15.5-14.6c6.6-3.5,14-5.3,22.2-5.3c8.2,0,15.6,1.8,22.1,5.3c6.6,3.5,11.7,8.4,15.5,14.6
		c3.8,6.2,5.6,13.2,5.6,20.9c0,7.8-1.9,14.7-5.6,20.9c-3.8,6.2-8.9,11.1-15.5,14.6c-6.5,3.5-13.9,5.3-22.1,5.3
		C35,85.1,27.6,83.4,21.1,79.8z M55.9,66.3c3.8-2.1,6.7-5.1,8.9-9c2.1-3.8,3.2-8.2,3.2-13.1c0-4.9-1.1-9.3-3.2-13.1
		c-2.1-3.8-5.1-6.8-8.9-9c-3.8-2.1-8-3.2-12.6-3.2c-4.7,0-8.9,1.1-12.6,3.2s-6.7,5.1-8.9,9c-2.1,3.8-3.2,8.2-3.2,13.1
		c0,4.9,1.1,9.3,3.2,13.1c2.1,3.8,5.1,6.8,8.9,9c3.8,2.1,8,3.2,12.6,3.2C47.9,69.5,52.1,68.5,55.9,66.3z"/>
	<path class="st0" d="M108.1,82.6c-5.8-1.7-10.5-3.9-14.1-6.6l6.2-13.8c3.4,2.5,7.4,4.5,12.1,6c4.7,1.5,9.3,2.3,14,2.3
		c5.2,0,9-0.8,11.5-2.3c2.5-1.5,3.7-3.6,3.7-6.2c0-1.9-0.7-3.4-2.2-4.7c-1.5-1.2-3.3-2.2-5.6-3c-2.3-0.8-5.4-1.6-9.3-2.5
		c-6-1.4-11-2.9-14.8-4.3c-3.8-1.4-7.1-3.7-9.9-6.9c-2.7-3.2-4.1-7.4-4.1-12.6c0-4.6,1.2-8.7,3.7-12.5c2.5-3.7,6.2-6.7,11.2-8.9
		c5-2.2,11.1-3.3,18.3-3.3c5,0,10,0.6,14.8,1.8c4.8,1.2,9,2.9,12.6,5.2l-5.6,13.9c-7.3-4.1-14.6-6.2-21.9-6.2
		c-5.1,0-8.9,0.8-11.3,2.5c-2.4,1.7-3.7,3.8-3.7,6.5c0,2.7,1.4,4.7,4.2,6c2.8,1.3,7.1,2.6,12.9,3.9c6,1.4,11,2.9,14.8,4.3
		c3.8,1.4,7.1,3.7,9.9,6.8c2.7,3.1,4.1,7.3,4.1,12.5c0,4.5-1.3,8.6-3.8,12.4c-2.5,3.7-6.3,6.7-11.3,8.9c-5,2.2-11.2,3.3-18.4,3.3
		C120,85.1,113.9,84.3,108.1,82.6z"/>
	<path class="st0" d="M180.1,82.6c-5.8-1.7-10.5-3.9-14.1-6.6l6.2-13.8c3.4,2.5,7.4,4.5,12.1,6c4.7,1.5,9.3,2.3,14,2.3
		c5.2,0,9-0.8,11.5-2.3c2.5-1.5,3.7-3.6,3.7-6.2c0-1.9-0.7-3.4-2.2-4.7c-1.5-1.2-3.3-2.2-5.6-3c-2.3-0.8-5.4-1.6-9.3-2.5
		c-6-1.4-10.9-2.9-14.8-4.3c-3.8-1.4-7.1-3.7-9.9-6.9c-2.7-3.2-4.1-7.4-4.1-12.6c0-4.6,1.2-8.7,3.7-12.5c2.5-3.7,6.2-6.7,11.2-8.9
		s11.1-3.3,18.3-3.3c5,0,10,0.6,14.8,1.8c4.8,1.2,9,2.9,12.6,5.2l-5.6,13.9c-7.3-4.1-14.6-6.2-21.9-6.2c-5.1,0-8.9,0.8-11.3,2.5
		c-2.4,1.7-3.7,3.8-3.7,6.5c0,2.7,1.4,4.7,4.2,6c2.8,1.3,7.1,2.6,12.9,3.9c6,1.4,10.9,2.9,14.8,4.3s7.1,3.7,9.9,6.8
		c2.7,3.1,4.1,7.3,4.1,12.5c0,4.5-1.3,8.6-3.8,12.4c-2.5,3.7-6.3,6.7-11.3,8.9c-5,2.2-11.2,3.3-18.4,3.3
		C192,85.1,186,84.3,180.1,82.6z"/>
	<path class="st1" d="M293.2,79.1c-6.2-3.5-11.1-8.2-14.7-14.3c-3.6-6.1-5.4-12.9-5.4-20.5c0-7.6,1.8-14.5,5.4-20.5
		c3.6-6.1,8.5-10.9,14.7-14.3c6.2-3.5,13.2-5.2,20.9-5.2c5.7,0,11,0.9,15.8,2.8c4.8,1.8,8.9,4.6,12.3,8.2l-3.6,3.7
		c-6.3-6.2-14.4-9.4-24.3-9.4c-6.6,0-12.6,1.5-18.1,4.5c-5.4,3-9.7,7.2-12.8,12.5s-4.6,11.2-4.6,17.8s1.5,12.5,4.6,17.8
		c3.1,5.3,7.3,9.5,12.8,12.5c5.4,3,11.4,4.5,18.1,4.5c9.8,0,17.9-3.2,24.3-9.5l3.6,3.7c-3.4,3.6-7.5,6.4-12.4,8.2
		c-4.9,1.9-10.1,2.8-15.7,2.8C306.3,84.3,299.4,82.6,293.2,79.1z"/>
	<path class="st1" d="M395.4,30c3.9,3.7,5.9,9.2,5.9,16.4v37.4h-5.4V73.3c-1.9,3.5-4.6,6.2-8.2,8.1c-3.6,1.9-7.9,2.9-13,2.9
		c-6.5,0-11.7-1.5-15.5-4.6c-3.8-3.1-5.7-7.1-5.7-12.2c0-4.9,1.8-8.9,5.2-11.9c3.5-3,9.1-4.6,16.8-4.6h20.2v-4.7
		c0-5.5-1.5-9.7-4.5-12.5c-3-2.9-7.3-4.3-13-4.3c-3.9,0-7.7,0.7-11.2,2c-3.6,1.4-6.6,3.2-9.1,5.4l-2.8-4.1c2.9-2.6,6.5-4.7,10.6-6.2
		c4.1-1.5,8.5-2.2,13-2.2C385.9,24.4,391.5,26.3,395.4,30z M387.9,76.2c3.4-2.3,6-5.5,7.7-9.8V55.3h-20.1c-5.8,0-10,1.1-12.6,3.2
		c-2.6,2.1-3.9,5-3.9,8.7c0,3.8,1.4,6.9,4.3,9.1c2.9,2.2,6.9,3.3,12.1,3.3C380.3,79.6,384.5,78.5,387.9,76.2z"/>
	<path class="st1" d="M469,28.2c4.4,2.6,7.9,6.1,10.4,10.6c2.5,4.5,3.8,9.7,3.8,15.5c0,5.8-1.3,11-3.8,15.5
		c-2.5,4.6-6,8.1-10.4,10.6c-4.4,2.5-9.4,3.8-14.9,3.8c-5.2,0-9.9-1.2-14.1-3.7c-4.2-2.4-7.5-5.9-9.8-10.2v35.3h-5.6V24.8h5.4v13.9
		c2.3-4.5,5.6-8,9.9-10.6c4.2-2.5,9-3.8,14.3-3.8C459.6,24.4,464.6,25.7,469,28.2z M465.9,76c3.6-2.1,6.5-5,8.5-8.8
		c2.1-3.8,3.1-8.1,3.1-12.9c0-4.8-1-9.1-3.1-12.9c-2.1-3.8-4.9-6.7-8.5-8.8c-3.6-2.1-7.7-3.2-12.2-3.2c-4.5,0-8.6,1.1-12.1,3.2
		c-3.6,2.1-6.4,5-8.5,8.8c-2.1,3.8-3.1,8.1-3.1,12.9c0,4.8,1,9.1,3.1,12.9c2.1,3.8,4.9,6.7,8.5,8.8c3.6,2.1,7.6,3.2,12.1,3.2
		C458.3,79.1,462.3,78.1,465.9,76z"/>
	<path class="st1" d="M500.3,9.2c-0.9-0.9-1.4-1.9-1.4-3.2c0-1.3,0.5-2.4,1.4-3.3c0.9-0.9,2-1.4,3.3-1.4c1.3,0,2.4,0.4,3.3,1.3
		c0.9,0.9,1.4,1.9,1.4,3.2c0,1.3-0.5,2.4-1.4,3.3c-0.9,0.9-2,1.4-3.3,1.4C502.3,10.5,501.2,10.1,500.3,9.2z M500.7,24.8h5.6v58.9
		h-5.6V24.8z"/>
	<path class="st1" d="M559.4,80c-1.4,1.4-3.2,2.4-5.4,3.1c-2.1,0.7-4.4,1.1-6.7,1.1c-5.1,0-9.1-1.4-11.9-4.2
		c-2.8-2.8-4.2-6.8-4.2-11.8V29.7h-10.8v-4.9h10.8V12h5.6v12.9h18.7v4.9H537v37.9c0,3.8,0.9,6.8,2.8,8.8c1.8,2,4.6,3,8.2,3
		c3.7,0,6.7-1.1,9.1-3.3L559.4,80z"/>
	<path class="st1" d="M611.8,30c3.9,3.7,5.9,9.2,5.9,16.4v37.4h-5.4V73.3c-1.9,3.5-4.6,6.2-8.2,8.1c-3.6,1.9-7.9,2.9-13,2.9
		c-6.5,0-11.7-1.5-15.5-4.6c-3.8-3.1-5.7-7.1-5.7-12.2c0-4.9,1.8-8.9,5.2-11.9c3.5-3,9.1-4.6,16.8-4.6H612v-4.7
		c0-5.5-1.5-9.7-4.5-12.5c-3-2.9-7.3-4.3-13-4.3c-3.9,0-7.7,0.7-11.2,2c-3.6,1.4-6.6,3.2-9.1,5.4l-2.8-4.1c2.9-2.6,6.5-4.7,10.6-6.2
		c4.1-1.5,8.5-2.2,13-2.2C602.3,24.4,607.9,26.3,611.8,30z M604.3,76.2c3.4-2.3,6-5.5,7.7-9.8V55.3h-20.1c-5.8,0-10,1.1-12.6,3.2
		c-2.6,2.1-3.9,5-3.9,8.7c0,3.8,1.4,6.9,4.3,9.1c2.9,2.2,6.9,3.3,12.1,3.3C596.7,79.6,600.9,78.5,604.3,76.2z"/>
	<path class="st1" d="M640.9,0h5.6v83.8h-5.6V0z"/>
</g>
</svg>
