 <svg width="46" height="27" viewBox="0 0 46 27" fill="none" xmlns="http://www.w3.org/2000/svg">
   <path d="M43.354 0.9C42.184 0.9 41.2371 1.84684 41.2371 3.01686C41.2371 3.30867 41.3062 3.57708 41.4117 3.82435L33.4085 15.0163C33.38 15.0161 33.3514 15.0167 33.3248 15.0172C33.3051 15.0176 33.2864 15.018 33.2697 15.018C32.8703 15.018 32.484 15.1223 32.161 15.3186L25.2976 11.9024C25.1995 10.8219 24.2903 9.97585 23.1854 9.97585C22.0154 9.97585 21.0686 10.9227 21.0686 12.0927C21.0686 12.1865 21.0799 12.2794 21.0925 12.3656L13.8077 18.1561C13.5852 18.0783 13.3472 18.0433 13.1011 18.0433C12.0622 18.0433 11.2066 18.7882 11.0265 19.7732L4.26122 22.5041C3.91213 22.2447 3.48642 22.077 3.01686 22.077C1.84684 22.077 0.9 23.0238 0.9 24.1938C0.9 25.3639 1.84684 26.3107 3.01686 26.3107C4.06426 26.3107 4.92372 25.5497 5.0923 24.5492L11.8566 21.8497C12.2057 22.1092 12.6315 22.277 13.1011 22.277C14.2711 22.277 15.218 21.3301 15.218 20.1601C15.218 20.0663 15.2067 19.9735 15.194 19.8873L22.4789 14.0968C22.7013 14.1746 22.9393 14.2096 23.1854 14.2096C23.5848 14.2096 23.9711 14.1053 24.2941 13.909L31.1575 17.3252C31.2556 18.4057 32.1649 19.2517 33.2697 19.2517C34.4397 19.2517 35.3866 18.3049 35.3866 17.1348C35.3866 16.843 35.3175 16.5746 35.2119 16.3273L43.2151 5.13536C43.2437 5.13561 43.2723 5.13503 43.2989 5.13449C43.3186 5.13409 43.3373 5.13371 43.354 5.13371C44.524 5.13371 45.4708 4.18687 45.4708 3.01686C45.4708 1.84684 44.524 0.9 43.354 0.9Z" fill="black" stroke="black" stroke-width="0.2" />
 </svg>