<svg xmlns="http://www.w3.org/2000/svg" width="1em" height="1em" viewBox="0 0 1024 1024"><path fill="#94a3b8" d="M288 568a56 56 0 1 0 112 0a56 56 0 1 0-112 0zm338.7 119.7c-23.1 18.2-68.9 37.8-114.7 37.8s-91.6-19.6-114.7-37.8c-14.4-11.3-35.3-8.9-46.7 5.5s-8.9 35.3 5.5 46.7C396.3 771.6 457.5 792 512 792s115.7-20.4 155.9-52.1a33.25 33.25 0 1 0-41.2-52.2zM960 456c0-61.9-50.1-112-112-112c-42.1 0-78.7 23.2-97.9 57.6c-57.6-31.5-127.7-51.8-204.1-56.5L612.9 195l127.9 36.9c11.5 32.6 42.6 56.1 79.2 56.1c46.4 0 84-37.6 84-84s-37.6-84-84-84c-32 0-59.8 17.9-74 44.2L603.5 123a33.2 33.2 0 0 0-39.6 18.4l-90.8 203.9c-74.5 5.2-142.9 25.4-199.2 56.2A111.94 111.94 0 0 0 176 344c-61.9 0-112 50.1-112 112c0 45.8 27.5 85.1 66.8 102.5c-7.1 21-10.8 43-10.8 65.5c0 154.6 175.5 280 392 280s392-125.4 392-280c0-22.6-3.8-44.5-10.8-65.5C932.5 541.1 960 501.8 960 456zM820 172.5a31.5 31.5 0 1 1 0 63a31.5 31.5 0 0 1 0-63zM120 456c0-30.9 25.1-56 56-56a56 56 0 0 1 50.6 32.1c-29.3 22.2-53.5 47.8-71.5 75.9a56.23 56.23 0 0 1-35.1-52zm392 381.5c-179.8 0-325.5-95.6-325.5-213.5S332.2 410.5 512 410.5S837.5 506.1 837.5 624S691.8 837.5 512 837.5zM868.8 508c-17.9-28.1-42.2-53.7-71.5-75.9c9-18.9 28.3-32.1 50.6-32.1c30.9 0 56 25.1 56 56c.1 23.5-14.5 43.7-35.1 52zM624 568a56 56 0 1 0 112 0a56 56 0 1 0-112 0z"></path></svg>