<?xml version="1.0" encoding="utf-8"?>
<!-- Generator: Adobe Illustrator 19.0.0, SVG Export Plug-In . SVG Version: 6.00 Build 0)  -->
<svg version="1.1" id="Layer_1" xmlns="http://www.w3.org/2000/svg" xmlns:xlink="http://www.w3.org/1999/xlink" x="0px" y="0px"
	 viewBox="0 0 603 103" style="enable-background:new 0 0 603 103;" xml:space="preserve">
<style type="text/css">
	.st0{fill:#0080FF;}
	.st1{fill-rule:evenodd;clip-rule:evenodd;fill:#0080FF;}
</style>
<g id="XMLID_2369_">
	<g id="XMLID_2638_">
		<g id="XMLID_2639_">
			<g>
				<g id="XMLID_44_">
					<g id="XMLID_48_">
						<path id="XMLID_49_" class="st0" d="M52.1,102.1l0-19.6c20.8,0,36.8-20.6,28.9-42.4C78,32,71.6,25.5,63.5,22.6
							c-21.8-7.9-42.4,8.1-42.4,28.9c0,0,0,0,0,0l-19.6,0c0-33.1,32-58.9,66.7-48.1c15.2,4.7,27.2,16.8,31.9,31.9
							C110.9,70.1,85.2,102.1,52.1,102.1z"/>
					</g>
					<polygon id="XMLID_47_" class="st1" points="52.1,82.5 32.6,82.5 32.6,63 32.6,63 52.1,63 52.1,63 					"/>
					<polygon id="XMLID_46_" class="st1" points="32.6,97.5 17.6,97.5 17.6,97.5 17.6,82.5 32.6,82.5 32.6,97.5 					"/>
					<polygon id="XMLID_45_" class="st1" points="17.6,82.5 5,82.5 5,82.5 5,70 5,70 17.6,70 17.6,70 					"/>
				</g>
			</g>
		</g>
	</g>
	<g id="XMLID_2370_">
		<path id="XMLID_2635_" class="st0" d="M181.5,30.2c-5.8-4-13-6.1-21.4-6.1h-18.3v58.1h18.3c8.4,0,15.6-2.1,21.4-6.4
			c3.2-2.2,5.7-5.4,7.4-9.3c1.7-3.9,2.6-8.5,2.6-13.7c0-5.1-0.9-9.7-2.6-13.6C187.2,35.4,184.7,32.3,181.5,30.2z M152.5,34h5.8
			c6.4,0,11.7,1.3,15.7,3.7c4.4,2.7,6.7,7.8,6.7,15.1c0,7.6-2.3,12.9-6.7,15.8h0c-3.8,2.5-9.1,3.8-15.6,3.8h-5.8V34z"/>
		<path id="XMLID_2634_" class="st0" d="M204.3,23.4c-1.8,0-3.3,0.6-4.5,1.8c-1.2,1.2-1.9,2.7-1.9,4.4c0,1.8,0.6,3.3,1.9,4.5
			c1.2,1.2,2.7,1.9,4.5,1.9c1.8,0,3.3-0.6,4.5-1.9c1.2-1.2,1.9-2.8,1.9-4.5c0-1.8-0.6-3.3-1.9-4.4C207.6,24,206,23.4,204.3,23.4z"/>
		<rect id="XMLID_2564_" x="199" y="41.3" class="st0" width="10.3" height="41"/>
		<path id="XMLID_2561_" class="st0" d="M246.8,44.7c-3.1-2.8-6.6-4.4-10.3-4.4c-5.7,0-10.4,2-14.1,5.8c-3.7,3.8-5.5,8.8-5.5,14.7
			c0,5.8,1.8,10.7,5.5,14.7c3.7,3.8,8.4,5.8,14.1,5.8c4,0,7.4-1.1,10.2-3.3V79c0,3.4-0.9,6-2.7,7.9c-1.8,1.8-4.3,2.7-7.4,2.7
			c-4.8,0-7.7-1.9-11.4-6.8l-7,6.7l0.2,0.3c1.5,2.1,3.8,4.2,6.9,6.2c3.1,2,6.9,3,11.5,3c6.1,0,11.1-1.9,14.7-5.6
			c3.7-3.7,5.5-8.7,5.5-14.9V41.3h-10.1V44.7z M244.1,68.9c-1.8,2-4.1,3-7.1,3c-3,0-5.3-1-7-3c-1.8-2-2.7-4.7-2.7-8
			c0-3.3,0.9-6.1,2.7-8.1c1.8-2,4.1-3.1,7-3.1c3,0,5.3,1,7.1,3.1c1.8,2,2.7,4.8,2.7,8.1C246.8,64.2,245.8,66.9,244.1,68.9z"/>
		<rect id="XMLID_2560_" x="265.7" y="41.3" class="st0" width="10.3" height="41"/>
		<path id="XMLID_2552_" class="st0" d="M271,23.4c-1.8,0-3.3,0.6-4.5,1.8c-1.2,1.2-1.9,2.7-1.9,4.4c0,1.8,0.6,3.3,1.9,4.5
			c1.2,1.2,2.7,1.9,4.5,1.9c1.8,0,3.3-0.6,4.5-1.9c1.2-1.2,1.9-2.8,1.9-4.5c0-1.8-0.6-3.3-1.9-4.4C274.3,24,272.7,23.4,271,23.4z"/>
		<path id="XMLID_2509_" class="st0" d="M298.6,30.3h-10.1v11.1h-5.9v9.4h5.9v17c0,5.3,1.1,9.1,3.2,11.3c2.1,2.2,5.8,3.3,11.1,3.3
			c1.7,0,3.4-0.1,5-0.2l0.5,0v-9.4l-3.5,0.2c-2.5,0-4.1-0.4-4.9-1.3c-0.8-0.9-1.2-2.7-1.2-5.4V50.7h9.6v-9.4h-9.6V30.3z"/>
		<rect id="XMLID_2508_" x="356.5" y="24.1" class="st0" width="10.3" height="58.1"/>
		<path id="XMLID_2470_" class="st0" d="M470.9,67.6c-1.8,2.1-3.7,3.9-5.2,4.8v0c-1.4,0.9-3.2,1.4-5.3,1.4c-3,0-5.5-1.1-7.5-3.4
			c-2-2.3-3-5.2-3-8.7s1-6.4,2.9-8.6c2-2.3,4.4-3.4,7.4-3.4c3.3,0,6.8,2.1,9.8,5.6l6.8-6.5l0,0c-4.4-5.8-10.1-8.5-16.9-8.5
			c-5.7,0-10.6,2.1-14.6,6.1c-4,4-6,9.2-6,15.3s2,11.2,6,15.3c4,4.1,8.9,6.1,14.6,6.1c7.5,0,13.5-3.2,17.5-9.1L470.9,67.6z"/>
		<path id="XMLID_2460_" class="st0" d="M513.2,47c-1.5-2-3.5-3.7-5.9-4.9c-2.5-1.2-5.3-1.8-8.5-1.8c-5.8,0-10.5,2.1-14,6.3
			c-3.4,4.2-5.2,9.3-5.2,15.4c0,6.2,1.9,11.3,5.7,15.3c3.7,3.9,8.8,5.9,14.9,5.9c6.9,0,12.7-2.8,16.9-8.4l0.2-0.3l-6.7-6.5l0,0
			c-0.6,0.8-1.5,1.6-2.3,2.4c-1,1-2,1.7-3,2.2c-1.5,0.8-3.3,1.1-5.2,1.1c-2.9,0-5.2-0.8-7-2.5c-1.7-1.5-2.7-3.6-2.9-6.2h27.3
			l0.1-3.8c0-2.7-0.4-5.2-1.1-7.6C515.8,51.3,514.7,49.1,513.2,47z M490.7,56.7c0.5-2,1.4-3.6,2.7-4.9c1.4-1.4,3.2-2.1,5.4-2.1
			c2.5,0,4.4,0.7,5.7,2.1c1.2,1.3,1.9,2.9,2.1,4.8H490.7z"/>
		<path id="XMLID_2456_" class="st0" d="M552.8,44.4L552.8,44.4c-3.1-2.7-7.4-4-12.8-4c-3.4,0-6.6,0.8-9.5,2.2
			c-2.7,1.4-5.3,3.6-7,6.6l0.1,0.1l6.6,6.3c2.7-4.3,5.7-5.8,9.7-5.8c2.2,0,3.9,0.6,5.3,1.7c1.4,1.1,2,2.6,2,4.4v2
			c-2.6-0.8-5.1-1.2-7.6-1.2c-5.1,0-9.3,1.2-12.4,3.6c-3.1,2.4-4.7,5.9-4.7,10.2c0,3.8,1.3,7,4,9.3c2.7,2.2,6,3.4,9.9,3.4
			c3.9,0,7.6-1.6,10.9-4.3v3.4h10.1V55.9C557.6,51,556,47.1,552.8,44.4z M534.5,66.6c1.2-0.8,2.8-1.2,4.9-1.2c2.5,0,5.1,0.5,7.8,1.5
			v4C545,73,542,74,538.3,74c-1.8,0-3.2-0.4-4.1-1.2c-0.9-0.8-1.4-1.7-1.4-3C532.8,68.5,533.4,67.4,534.5,66.6z"/>
		<path id="XMLID_2454_" class="st0" d="M597.2,45.2c-2.9-3.2-6.9-4.8-12-4.8c-4.1,0-7.4,1.2-9.9,3.5v-2.5h-10.1v41h10.3V59.7
			c0-3.1,0.7-5.6,2.2-7.3c1.5-1.8,3.4-2.6,6.1-2.6c2.3,0,4.1,0.8,5.4,2.3c1.3,1.6,2,3.7,2,6.4v23.7h10.3V58.5
			C601.5,52.9,600.1,48.4,597.2,45.2z"/>
		<path id="XMLID_2450_" class="st0" d="M343.6,44.4L343.6,44.4c-3.1-2.7-7.4-4-12.8-4c-3.4,0-6.6,0.8-9.5,2.2
			c-2.7,1.4-5.3,3.6-7,6.6l0.1,0.1l6.6,6.3c2.7-4.3,5.7-5.8,9.7-5.8c2.2,0,3.9,0.6,5.3,1.7c1.4,1.1,2,2.6,2,4.4v2
			c-2.6-0.8-5.1-1.2-7.6-1.2c-5.1,0-9.3,1.2-12.4,3.6c-3.1,2.4-4.7,5.9-4.7,10.2c0,3.8,1.3,7,4,9.3c2.7,2.2,6,3.4,9.9,3.4
			c3.9,0,7.6-1.6,10.9-4.3v3.4h10.1V55.9C348.3,51,346.7,47.1,343.6,44.4z M325.3,66.6c1.2-0.8,2.8-1.2,4.9-1.2
			c2.5,0,5.1,0.5,7.8,1.5v4c-2.2,2.1-5.2,3.1-8.9,3.1c-1.8,0-3.2-0.4-4.1-1.2c-0.9-0.8-1.4-1.7-1.4-3
			C323.6,68.5,324.1,67.4,325.3,66.6z"/>
		<path id="XMLID_2371_" class="st0" d="M404.2,83.1c-16.5,0-30-13.4-30-30s13.4-30,30-30c16.5,0,30,13.4,30,30
			S420.7,83.1,404.2,83.1z M404.2,33.8c-10.7,0-19.4,8.7-19.4,19.4s8.7,19.4,19.4,19.4c10.7,0,19.4-8.7,19.4-19.4
			S414.9,33.8,404.2,33.8z"/>
	</g>
</g>
</svg>
