<svg xmlns="http://www.w3.org/2000/svg" xmlns:xlink="http://www.w3.org/1999/xlink" id="Layer_1" x="0" y="0" version="1.1" viewBox="0 0 587.5 96" xml:space="preserve" style="enable-background:new 0 0 587.5 96"><style type="text/css">.st0{fill:#104366}.st1{fill:#4086c6}</style><g id="Layer_1_1_"><g><path d="M19.2,72.5c-6-3.2-10.7-7.6-14.1-13.3c-3.4-5.6-5.1-12-5.1-19s1.7-13.4,5.1-19s8.1-10.1,14.1-13.3 s12.7-4.8,20.2-4.8s14.2,1.6,20.1,4.8c6,3.2,10.6,7.6,14.1,13.3s5.1,12,5.1,19s-1.7,13.4-5.1,19s-8.2,10.1-14.2,13.3 c-5.9,3.2-12.7,4.8-20.1,4.8S25.2,75.7,19.2,72.5z M50.8,60.3c3.4-1.9,6.1-4.7,8.1-8.2c1.9-3.5,2.9-7.5,2.9-11.9s-1-8.4-2.9-11.9 c-2-3.5-4.6-6.2-8.1-8.2s-7.2-2.9-11.5-2.9c-4.2,0-8.1,1-11.5,2.9s-6.1,4.7-8.1,8.2s-2.9,7.5-2.9,11.9s1,8.4,2.9,11.9 s4.6,6.2,8.1,8.2c3.4,1.9,7.2,2.9,11.5,2.9C43.6,63.2,47.4,62.2,50.8,60.3z" class="st0"/><path d="M98.3,75c-5.3-1.5-9.6-3.5-12.8-6l5.6-12.5c3.1,2.3,6.7,4.1,11,5.4c4.2,1.4,8.5,2.1,12.7,2.1 c4.7,0,8.2-0.7,10.5-2.1c2.3-1.4,3.4-3.3,3.4-5.6c0-1.7-0.7-3.1-2-4.3c-1.3-1.1-3-2-5.1-2.7s-4.9-1.4-8.5-2.3 c-5.5-1.3-10-2.6-13.4-3.9c-3.5-1.3-6.5-3.4-9-6.3c-2.5-2.9-3.7-6.7-3.7-11.5c0-4.2,1.1-7.9,3.4-11.3c2.3-3.4,5.7-6.1,10.2-8.1 s10.1-3,16.7-3c4.6,0,9.1,0.5,13.4,1.6c4.4,1.1,8.2,2.7,11.5,4.7l-5.1,12.6c-6.6-3.8-13.3-5.6-19.9-5.6c-4.7,0-8.1,0.8-10.3,2.3 s-3.3,3.5-3.3,5.9c0,2.5,1.3,4.3,3.8,5.5c2.6,1.2,6.5,2.4,11.7,3.5c5.5,1.3,10,2.6,13.4,3.9c3.5,1.3,6.5,3.4,9,6.2 s3.7,6.6,3.7,11.4c0,4.1-1.1,7.8-3.4,11.2c-2.3,3.4-5.7,6.1-10.3,8.1s-10.2,3-16.7,3C109.1,77.3,103.6,76.6,98.3,75z" class="st0"/><path d="M163.7,75c-5.3-1.5-9.6-3.5-12.8-6l5.6-12.5c3.1,2.3,6.7,4.1,11,5.4c4.2,1.4,8.5,2.1,12.7,2.1 c4.7,0,8.2-0.7,10.5-2.1c2.3-1.4,3.4-3.3,3.4-5.6c0-1.7-0.7-3.1-2-4.3c-1.3-1.1-3-2-5.1-2.7s-4.9-1.4-8.5-2.3 c-5.5-1.3-9.9-2.6-13.4-3.9c-3.5-1.3-6.5-3.4-9-6.3c-2.5-2.9-3.7-6.7-3.7-11.5c0-4.2,1.1-7.9,3.4-11.3c2.3-3.4,5.7-6.1,10.2-8.1 s10.1-3,16.7-3c4.6,0,9.1,0.5,13.4,1.6c4.4,1.1,8.2,2.7,11.5,4.7l-5.2,12.9c-6.6-3.8-13.3-5.6-19.9-5.6c-4.7,0-8.1,0.8-10.3,2.3 s-3.3,3.5-3.3,5.9c0,2.5,1.3,4.3,3.8,5.5c2.6,1.2,6.5,2.4,11.7,3.5c5.5,1.3,9.9,2.6,13.4,3.9c3.5,1.3,6.5,3.4,9,6.2 s3.7,6.6,3.7,11.4c0,4.1-1.1,7.8-3.4,11.2c-2.3,3.4-5.7,6.1-10.3,8.1c-4.6,2-10.2,3-16.7,3C174.5,77.3,169,76.6,163.7,75z" class="st0"/><path d="M266.4,71.9c-5.6-3.1-10.1-7.5-13.3-13c-3.2-5.5-4.9-11.8-4.9-18.7s1.6-13.1,4.9-18.7 c3.2-5.5,7.7-9.9,13.3-13c5.6-3.1,12-4.7,19-4.7c5.2,0,10,0.8,14.4,2.5s8.1,4.2,11.2,7.4l-3.3,3.4c-5.7-5.7-13.1-8.5-22.1-8.5 c-6,0-11.5,1.4-16.4,4.1s-8.8,6.5-11.6,11.3c-2.8,4.8-4.2,10.2-4.2,16.2s1.4,11.3,4.2,16.2c2.8,4.8,6.7,8.6,11.6,11.3 c4.9,2.7,10.4,4.1,16.4,4.1c8.9,0,16.2-2.9,22.1-8.6l3.3,3.4c-3.1,3.3-6.8,5.8-11.2,7.5c-4.4,1.7-9.2,2.6-14.3,2.6 C278.4,76.6,272,75.1,266.4,71.9z" class="st1"/><path d="M359.3,27.2c3.6,3.4,5.3,8.4,5.3,14.9v34h-4.9v-9.5c-1.7,3.1-4.2,5.6-7.5,7.3c-3.3,1.7-7.2,2.6-11.8,2.6 c-5.9,0-10.6-1.4-14.1-4.2c-3.5-2.8-5.2-6.5-5.2-11.1c0-4.4,1.6-8.1,4.8-10.8c3.2-2.8,8.3-4.2,15.2-4.2h18.4V42 c0-5-1.3-8.8-4-11.4s-6.7-3.9-11.8-3.9c-3.6,0-7,0.6-10.2,1.8c-3.2,1.2-6,2.9-8.3,4.9l-2.6-3.7c2.7-2.4,5.9-4.3,9.6-5.6 c3.8-1.3,7.7-2,11.8-2C350.6,22.2,355.7,23.8,359.3,27.2z M352.4,69.2c3.1-2.1,5.5-5,7-8.9v-10h-18.3c-5.3,0-9.1,1-11.4,2.9 c-2.4,1.9-3.5,4.5-3.5,7.9c0,3.5,1.3,6.2,3.9,8.3c2.6,2,6.3,3,11,3C345.6,72.3,349.3,71.3,352.4,69.2z" class="st1"/><path d="M426.1,25.6c4,2.3,7.2,5.5,9.5,9.6S439,44,439,49.3s-1.1,10-3.4,14.1s-5.5,7.4-9.5,9.6s-8.5,3.4-13.5,3.4 c-4.7,0-9-1.1-12.8-3.3c-3.8-2.2-6.8-5.3-8.9-9.3V96h-5.1V22.6h4.9v12.6c2.1-4.1,5.1-7.3,9-9.6s8.2-3.4,13-3.4 C417.6,22.2,422.1,23.3,426.1,25.6z M423.4,69c3.3-1.9,5.9-4.6,7.7-8c1.9-3.4,2.8-7.3,2.8-11.7s-0.9-8.3-2.8-11.7s-4.5-6.1-7.7-8 c-3.3-1.9-7-2.9-11.1-2.9s-7.8,1-11,2.9s-5.8,4.6-7.7,8c-1.9,3.4-2.8,7.3-2.8,11.7s0.9,8.3,2.8,11.7s4.4,6.1,7.7,8 c3.2,1.9,6.9,2.9,11,2.9S420.1,70.9,423.4,69z" class="st1"/><path d="M454.6,8.4c-0.8-0.8-1.2-1.8-1.2-2.9c0-1.2,0.4-2.2,1.2-3s1.8-1.2,3-1.2s2.2,0.4,3,1.2s1.2,1.8,1.2,2.9 c0,1.2-0.4,2.2-1.2,3s-1.8,1.2-3,1.2C456.4,9.5,455.4,9.1,454.6,8.4z M455,22.6h5.1v53.5H455V22.6z" class="st1"/><path d="M508.3,72.7c-1.3,1.2-2.9,2.2-4.9,2.8s-4,1-6.1,1c-4.7,0-8.2-1.3-10.8-3.8c-2.5-2.6-3.8-6.1-3.8-10.7V27h-9.8 v-4.4h9.8V10.9h5.1v11.7h17V27h-17v34.5c0,3.5,0.8,6.1,2.5,8c1.7,1.8,4.2,2.7,7.4,2.7c3.4,0,6.1-1,8.3-3L508.3,72.7z" class="st1"/><path d="M555.9,27.2c3.6,3.4,5.3,8.4,5.3,14.9v34h-4.9v-9.5c-1.7,3.1-4.2,5.6-7.5,7.3c-3.3,1.7-7.2,2.6-11.8,2.6 c-5.9,0-10.6-1.4-14.1-4.2c-3.5-2.8-5.2-6.5-5.2-11.1c0-4.4,1.6-8.1,4.8-10.8c3.2-2.8,8.3-4.2,15.2-4.2h18.4V42 c0-5-1.3-8.8-4-11.4c-2.7-2.6-6.7-3.9-11.8-3.9c-3.6,0-7,0.6-10.2,1.8c-3.2,1.2-6,2.9-8.3,4.9l-2.6-3.7c2.7-2.4,5.9-4.3,9.6-5.6 c3.8-1.3,7.7-2,11.8-2C547.2,22.2,552.3,23.8,555.9,27.2z M549.1,69.2c3.1-2.1,5.5-5,7-8.9v-10h-18.3c-5.3,0-9.1,1-11.4,2.9 c-2.4,1.9-3.5,4.5-3.5,7.9c0,3.5,1.3,6.2,3.9,8.3c2.6,2,6.3,3,11,3C542.2,72.3,546,71.3,549.1,69.2z" class="st1"/><path d="M582.4,0h5.1v76.1h-5.1V0z" class="st1"/></g></g></svg>