<svg width="1354" height="420" viewBox="0 0 1354 420" fill="none" xmlns="http://www.w3.org/2000/svg">
<rect width="1354" height="420" rx="20" fill="none"/>
<path d="M434.751 133.122H466.637L489.595 227.729C493.852 245.585 494.697 256.219 494.697 256.219H495.128C495.128 256.219 496.61 245.808 500.867 227.729L522.757 133.122H558.9L582.066 227.729C586.53 246.223 587.598 256.219 587.598 256.219H588.236C588.236 256.219 588.666 246.223 592.907 227.729L615.02 133.122H646.907L606.523 288.313H571.017L546.576 194.344C541.474 173.936 541.044 164.801 541.044 164.801H540.614C540.614 164.801 540.183 173.936 535.512 194.344L512.553 288.313H475.996L434.751 133.122Z" fill="black"/>
<path d="M641.583 231.934C641.583 196.428 664.541 173.47 699.202 173.47C733.639 173.47 756.597 196.428 756.597 231.934C756.597 267.647 733.639 290.828 699.202 290.828C664.557 290.812 641.583 267.647 641.583 231.934ZM726.832 231.934C726.832 208.976 715.783 195.998 699.202 195.998C681.346 195.998 671.349 210.458 671.349 231.934C671.349 255.323 682.398 268.284 699.202 268.284C717.058 268.284 726.832 253.824 726.832 231.934Z" fill="black"/>
<path d="M770.836 175.21H799.103V196.048H799.741C804.635 185.207 816.322 174.365 836.299 174.365C839.695 174.365 841.831 174.796 843.314 175.21V203.478H842.469C842.469 203.478 839.918 202.633 832.903 202.633C811.013 202.633 799.103 215.594 799.103 239.828V288.295H770.836V175.21Z" fill="black"/>
<path d="M856.5 133.122H884.767V182.865C884.767 212.2 884.336 217.509 884.336 217.509H884.767L926.857 175.212H962.139L912.843 224.11L970.031 288.313H936.646L895.401 241.536L884.767 251.946V288.297H856.5V133.122Z" fill="black"/>
<path d="M970.444 211.285C970.444 163.455 1000.21 131.569 1044.85 131.569C1089.49 131.569 1119.26 163.455 1119.26 211.285C1119.26 259.114 1089.49 291.001 1044.85 291.001C1000.21 291.001 970.444 259.114 970.444 211.285ZM1088.42 211.285C1088.42 178.761 1071 156.855 1044.84 156.855C1018.67 156.855 1001.26 178.761 1001.26 211.285C1001.26 243.809 1018.69 265.715 1044.84 265.715C1070.98 265.715 1088.42 243.809 1088.42 211.285Z" fill="black"/>
<path d="M1130.08 236.656H1162.4C1162.4 254.943 1174.95 265.146 1194.08 265.146C1210.23 265.146 1221.29 257.063 1221.29 245.584C1221.29 232.622 1212.79 229.21 1185.79 223.901C1161.12 219.007 1134.98 210.716 1134.98 178.399C1134.98 151.408 1157.93 131 1193.01 131C1229.57 131 1252.11 150.132 1252.11 179.037H1219.79C1219.79 165.007 1208.95 156.286 1193.01 156.286C1176.86 156.286 1166.86 164.146 1166.86 175.625C1166.86 187.742 1173.88 192.413 1195.56 196.878C1227.65 203.685 1254.02 207.288 1254.02 243.001C1254.02 271.3 1229.36 290.432 1193.01 290.432C1156.02 290.432 1130.08 268.957 1130.08 236.656Z" fill="black"/>
<path d="M100 210C100 214.824 101.269 219.647 103.723 223.793L148.231 300.878C152.8 308.747 159.739 315.178 168.369 318.055C185.377 323.724 202.977 316.447 211.354 301.893L222.1 283.278L179.708 210L224.47 132.408L235.216 113.792C238.431 108.208 242.747 103.638 247.824 100H243.17H178.777C166.677 100 155.508 106.431 149.5 116.923L103.723 196.208C101.269 200.354 100 205.177 100 210Z" fill="#6363F1"/>
<path d="M353.847 210C353.847 205.177 352.578 200.353 350.124 196.207L305.024 118.107C296.647 103.638 279.047 96.3608 262.039 101.945C253.409 104.822 246.47 111.253 241.901 119.122L231.747 136.638L274.139 210L229.378 287.592L218.632 306.208C215.416 311.708 211.101 316.362 206.024 320H210.678H275.07C287.17 320 298.34 313.569 304.347 303.077L350.124 223.792C352.578 219.646 353.847 214.823 353.847 210Z" fill="#6363F1"/>
</svg>
